<svg xmlns="http://www.w3.org/2000/svg" xmlns:xlink="http://www.w3.org/1999/xlink" width="1920" zoomAndPan="magnify" viewBox="0 0 1440 809.999993" height="1080" preserveAspectRatio="xMidYMid meet" version="1.0"><defs><clipPath id="eccabc9715"><path d="M 420.363281 8 L 1055.613281 8 L 1055.613281 801 L 420.363281 801 Z M 420.363281 8 " clip-rule="nonzero"/></clipPath></defs><rect x="-144" width="1728" fill="#ffffff" y="-80.999999" height="971.999992" fill-opacity="1"/><rect x="-144" width="1728" fill="#243645" y="-80.999999" height="971.999992" fill-opacity="1"/><path fill="#243645" d="M 972.746094 474.898438 L 1026.476562 468.894531 L 1042.511719 659.761719 L 965.914062 666.128906 L 972.746094 474.902344 Z M 509.441406 657.445312 C 509.441406 657.628906 509.449219 657.816406 509.46875 658.003906 L 509.476562 658.078125 L 510.144531 671.550781 L 433.410156 666.085938 L 446.292969 463.269531 L 500.089844 468.722656 L 500.785156 482.710938 L 500.785156 482.78125 C 500.785156 482.96875 500.792969 483.15625 500.8125 483.34375 L 500.8125 483.414062 L 509.433594 657.378906 L 509.433594 657.445312 Z M 865.628906 500.9375 L 865.628906 500.925781 L 867.996094 501.675781 C 868.566406 501.855469 869.148438 501.929688 869.742188 501.898438 L 904.933594 500.039062 L 922.78125 647.007812 L 855.792969 594.648438 L 852.292969 591.894531 C 852.191406 591.8125 852.089844 591.738281 851.980469 591.664062 L 851.9375 591.636719 L 851.890625 591.601562 C 842.808594 585.046875 834.292969 577.820312 826.339844 569.929688 C 821.308594 564.75 816.566406 559.324219 812.105469 553.648438 C 808.921875 549.523438 805.523438 545.585938 801.90625 541.835938 C 797.925781 537.875 793.523438 534.460938 788.703125 531.582031 C 781.6875 527.5 774.367188 524.074219 766.734375 521.308594 C 754.921875 516.835938 742.644531 513.183594 730.46875 509.824219 L 730.398438 509.804688 L 730.332031 509.78125 C 729.648438 509.550781 728.953125 509.46875 728.234375 509.539062 C 727.519531 509.609375 726.851562 509.824219 726.230469 510.1875 L 650.175781 554.222656 C 648.742188 555.0625 647.214844 555.667969 645.59375 556.035156 C 643.972656 556.402344 642.332031 556.515625 640.675781 556.371094 C 639.042969 556.203125 637.476562 555.785156 635.972656 555.121094 C 634.472656 554.453125 633.109375 553.570312 631.886719 552.472656 L 626.65625 547.867188 C 626.0625 547.363281 625.605469 546.761719 625.277344 546.054688 C 624.960938 545.324219 624.8125 544.5625 624.832031 543.765625 C 624.859375 543.082031 625.039062 542.441406 625.378906 541.84375 C 625.921875 540.894531 626.566406 540.019531 627.3125 539.21875 L 652.414062 510.796875 L 652.453125 510.757812 C 652.527344 510.679688 652.597656 510.605469 652.667969 510.523438 L 670.421875 489.753906 L 670.453125 489.714844 C 670.546875 489.621094 670.632812 489.519531 670.714844 489.414062 L 670.746094 489.375 L 674.609375 484.851562 L 766.703125 469.53125 L 865.632812 500.929688 Z M 812.480469 362.714844 L 663.550781 362.714844 C 662.5625 362.714844 661.585938 362.617188 660.617188 362.425781 C 659.648438 362.234375 658.707031 361.949219 657.796875 361.570312 C 656.882812 361.191406 656.019531 360.730469 655.195312 360.179688 C 654.375 359.632812 653.617188 359.007812 652.917969 358.3125 C 652.222656 357.613281 651.597656 356.851562 651.050781 356.03125 C 650.5 355.210938 650.039062 354.34375 649.660156 353.433594 C 649.28125 352.519531 648.996094 351.582031 648.804688 350.613281 C 648.613281 349.644531 648.515625 348.667969 648.515625 347.679688 C 648.515625 346.691406 648.613281 345.714844 648.804688 344.746094 C 648.996094 343.777344 649.28125 342.839844 649.660156 341.925781 C 650.039062 341.015625 650.5 340.148438 651.050781 339.328125 C 651.597656 338.507812 652.222656 337.746094 652.917969 337.050781 C 653.617188 336.351562 654.375 335.726562 655.195312 335.179688 C 656.019531 334.632812 656.882812 334.167969 657.796875 333.789062 C 658.707031 333.414062 659.648438 333.128906 660.617188 332.933594 C 661.585938 332.742188 662.5625 332.644531 663.550781 332.644531 L 812.480469 332.644531 C 813.464844 332.644531 814.445312 332.742188 815.414062 332.933594 C 816.378906 333.128906 817.320312 333.414062 818.230469 333.789062 C 819.144531 334.167969 820.011719 334.632812 820.832031 335.179688 C 821.652344 335.726562 822.410156 336.351562 823.109375 337.050781 C 823.808594 337.746094 824.429688 338.507812 824.980469 339.328125 C 825.527344 340.148438 825.992188 341.015625 826.367188 341.925781 C 826.746094 342.839844 827.03125 343.777344 827.222656 344.746094 C 827.417969 345.714844 827.511719 346.691406 827.511719 347.679688 C 827.511719 348.667969 827.417969 349.644531 827.222656 350.613281 C 827.03125 351.582031 826.746094 352.519531 826.367188 353.433594 C 825.992188 354.34375 825.527344 355.210938 824.980469 356.03125 C 824.429688 356.851562 823.808594 357.613281 823.109375 358.3125 C 822.410156 359.007812 821.652344 359.632812 820.832031 360.179688 C 820.011719 360.730469 819.144531 361.191406 818.234375 361.570312 C 817.320312 361.949219 816.378906 362.234375 815.414062 362.425781 C 814.445312 362.617188 813.464844 362.714844 812.480469 362.714844 Z M 769.363281 414.191406 C 768.914062 415.914062 768.328125 417.589844 767.605469 419.21875 C 766.882812 420.847656 766.03125 422.402344 765.046875 423.890625 C 764.066406 425.375 762.972656 426.773438 761.761719 428.078125 C 760.550781 429.382812 759.238281 430.582031 757.832031 431.671875 C 756.421875 432.761719 754.933594 433.730469 753.367188 434.574219 C 751.796875 435.417969 750.171875 436.128906 748.484375 436.703125 C 746.800781 437.277344 745.078125 437.714844 743.320312 438.003906 C 741.5625 438.296875 739.796875 438.441406 738.015625 438.441406 C 736.234375 438.441406 734.464844 438.296875 732.707031 438.003906 C 730.949219 437.714844 729.230469 437.277344 727.542969 436.703125 C 725.859375 436.128906 724.230469 435.417969 722.664062 434.574219 C 721.09375 433.730469 719.605469 432.761719 718.199219 431.671875 C 716.789062 430.582031 715.480469 429.382812 714.269531 428.078125 C 713.054688 426.773438 711.960938 425.375 710.980469 423.890625 C 710 422.402344 709.148438 420.847656 708.421875 419.21875 C 707.699219 417.589844 707.113281 415.914062 706.664062 414.191406 L 705.859375 411.058594 L 770.164062 411.058594 L 769.355469 414.191406 Z M 511.050781 488.78125 L 568.566406 498.804688 L 540.984375 657.027344 L 519.203125 653.238281 Z M 511.050781 488.78125 " fill-opacity="1" fill-rule="evenodd"/><g clip-path="url(#eccabc9715)"><path fill="#000000" d="M 576.695312 686.652344 L 542.78125 670.007812 L 522.359375 666.449219 L 522.839844 676.144531 C 522.898438 676.6875 522.894531 677.230469 522.832031 677.773438 C 522.769531 678.316406 522.648438 678.84375 522.46875 679.363281 C 522.289062 679.878906 522.058594 680.367188 521.773438 680.835938 C 521.488281 681.300781 521.152344 681.730469 520.773438 682.121094 C 520.394531 682.515625 519.976562 682.863281 519.519531 683.164062 C 519.0625 683.464844 518.582031 683.710938 518.070312 683.90625 C 517.5625 684.105469 517.035156 684.242188 516.496094 684.320312 C 515.953125 684.402344 515.410156 684.421875 514.867188 684.386719 L 427.59375 678.175781 C 427.105469 678.140625 426.625 678.058594 426.15625 677.933594 C 425.683594 677.804688 425.226562 677.628906 424.789062 677.414062 C 424.351562 677.195312 423.941406 676.9375 423.550781 676.640625 C 423.164062 676.339844 422.8125 676.007812 422.488281 675.640625 C 422.167969 675.273438 421.882812 674.875 421.640625 674.453125 C 421.394531 674.027344 421.195312 673.585938 421.035156 673.125 C 420.878906 672.660156 420.769531 672.1875 420.703125 671.703125 C 420.636719 671.21875 420.621094 670.730469 420.652344 670.242188 L 434.167969 457.324219 L 434.191406 457.0625 C 434.238281 456.574219 434.332031 456.09375 434.476562 455.625 C 434.617188 455.152344 434.804688 454.703125 435.035156 454.269531 C 435.269531 453.835938 435.539062 453.429688 435.851562 453.050781 C 436.160156 452.671875 436.507812 452.328125 436.886719 452.015625 C 437.265625 451.703125 437.671875 451.433594 438.105469 451.203125 C 438.539062 450.96875 438.988281 450.78125 439.457031 450.640625 C 439.925781 450.5 440.40625 450.402344 440.894531 450.355469 C 441.382812 450.308594 441.871094 450.308594 442.359375 450.355469 L 505.40625 456.746094 C 505.859375 456.777344 506.300781 456.855469 506.738281 456.96875 C 507.175781 457.085938 507.597656 457.238281 508.007812 457.429688 C 508.417969 457.621094 508.804688 457.851562 509.175781 458.113281 C 509.542969 458.375 509.882812 458.667969 510.199219 458.992188 C 510.511719 459.316406 510.796875 459.667969 511.046875 460.042969 C 511.296875 460.417969 511.515625 460.8125 511.695312 461.226562 C 511.875 461.640625 512.015625 462.070312 512.117188 462.511719 C 512.21875 462.949219 512.28125 463.394531 512.300781 463.847656 L 512.925781 476.453125 L 575.46875 487.355469 L 593.304688 489.3125 L 662.9375 479.3125 L 666.308594 475.371094 C 667.492188 473.980469 668.984375 473.140625 670.789062 472.847656 L 765.367188 457.132812 C 766.703125 456.816406 768.027344 456.867188 769.335938 457.28125 L 870.484375 489.382812 L 908.496094 487.378906 C 908.703125 487.355469 908.90625 487.339844 909.109375 487.335938 L 960.007812 482.347656 L 960.445312 470.152344 C 960.460938 469.707031 960.515625 469.265625 960.609375 468.832031 C 960.703125 468.394531 960.835938 467.972656 961.007812 467.5625 C 961.175781 467.148438 961.378906 466.757812 961.621094 466.382812 C 961.859375 466.007812 962.132812 465.65625 962.433594 465.332031 C 962.738281 465.003906 963.066406 464.707031 963.421875 464.441406 C 963.777344 464.171875 964.15625 463.9375 964.554688 463.738281 C 964.949219 463.539062 965.363281 463.375 965.789062 463.25 C 966.214844 463.121094 966.652344 463.035156 967.09375 462.984375 L 967.09375 462.976562 L 1030.1875 455.925781 C 1030.675781 455.871094 1031.164062 455.867188 1031.652344 455.90625 C 1032.144531 455.949219 1032.625 456.039062 1033.097656 456.175781 C 1033.566406 456.316406 1034.023438 456.496094 1034.457031 456.722656 C 1034.894531 456.949219 1035.304688 457.214844 1035.6875 457.523438 C 1036.070312 457.832031 1036.421875 458.171875 1036.738281 458.550781 C 1037.050781 458.925781 1037.328125 459.328125 1037.566406 459.757812 C 1037.800781 460.191406 1037.996094 460.640625 1038.144531 461.109375 C 1038.289062 461.578125 1038.390625 462.054688 1038.445312 462.542969 L 1038.464844 462.75 L 1038.476562 462.75 L 1055.359375 663.703125 C 1055.398438 664.191406 1055.390625 664.683594 1055.335938 665.171875 C 1055.277344 665.660156 1055.175781 666.136719 1055.023438 666.605469 C 1054.875 667.074219 1054.679688 667.523438 1054.4375 667.953125 C 1054.199219 668.382812 1053.921875 668.785156 1053.605469 669.160156 C 1053.285156 669.535156 1052.933594 669.875 1052.546875 670.179688 C 1052.164062 670.488281 1051.75 670.75 1051.316406 670.976562 C 1050.878906 671.203125 1050.421875 671.382812 1049.949219 671.515625 C 1049.476562 671.652344 1048.996094 671.738281 1048.503906 671.78125 L 961.339844 679.03125 C 960.789062 679.078125 960.242188 679.0625 959.695312 678.984375 C 959.144531 678.910156 958.613281 678.773438 958.097656 678.578125 C 957.578125 678.382812 957.089844 678.136719 956.625 677.832031 C 956.164062 677.53125 955.738281 677.179688 955.355469 676.785156 C 954.96875 676.386719 954.632812 675.953125 954.339844 675.480469 C 954.050781 675.011719 953.816406 674.515625 953.640625 673.992188 C 953.460938 673.46875 953.339844 672.929688 953.277344 672.382812 C 953.21875 671.832031 953.21875 671.28125 953.277344 670.734375 L 953.328125 669.414062 L 939.480469 670.769531 C 939.597656 672.632812 939.546875 674.488281 939.332031 676.339844 C 939.113281 678.191406 938.734375 680.007812 938.191406 681.789062 C 937.648438 683.574219 936.949219 685.292969 936.097656 686.953125 C 935.246094 688.609375 934.25 690.175781 933.117188 691.65625 C 932.949219 691.894531 932.769531 692.125 932.574219 692.34375 C 931.304688 693.910156 929.894531 695.335938 928.347656 696.628906 C 926.800781 697.917969 925.144531 699.050781 923.378906 700.019531 C 921.613281 700.988281 919.769531 701.78125 917.851562 702.394531 C 915.929688 703.007812 913.972656 703.429688 911.96875 703.664062 C 909.664062 703.9375 907.355469 703.957031 905.046875 703.71875 C 905.121094 704.171875 905.183594 704.625 905.238281 705.078125 C 905.484375 706.941406 905.546875 708.808594 905.414062 710.683594 C 905.285156 712.558594 904.96875 714.398438 904.464844 716.207031 C 903.957031 718.015625 903.277344 719.757812 902.421875 721.425781 C 901.5625 723.097656 900.546875 724.667969 899.367188 726.128906 C 898.46875 727.265625 897.496094 728.335938 896.449219 729.335938 C 895.402344 730.335938 894.289062 731.257812 893.117188 732.105469 C 891.941406 732.953125 890.710938 733.714844 889.433594 734.390625 C 888.152344 735.070312 886.828125 735.652344 885.46875 736.148438 C 884.105469 736.640625 882.71875 737.039062 881.300781 737.339844 C 879.882812 737.640625 878.453125 737.84375 877.007812 737.949219 C 875.5625 738.050781 874.117188 738.054688 872.671875 737.957031 C 871.226562 737.859375 869.796875 737.664062 868.378906 737.371094 C 868.589844 739.167969 868.621094 740.96875 868.472656 742.773438 C 868.324219 744.578125 868 746.351562 867.5 748.089844 C 866.996094 749.832031 866.328125 751.503906 865.492188 753.109375 C 864.65625 754.71875 863.671875 756.226562 862.535156 757.636719 C 861.636719 758.769531 860.664062 759.839844 859.617188 760.839844 C 858.574219 761.839844 857.460938 762.761719 856.289062 763.609375 C 855.113281 764.457031 853.886719 765.21875 852.609375 765.894531 C 851.328125 766.570312 850.007812 767.15625 848.648438 767.652344 C 847.289062 768.144531 845.902344 768.542969 844.484375 768.847656 C 843.070312 769.148438 841.640625 769.351562 840.195312 769.457031 C 838.753906 769.5625 837.308594 769.566406 835.863281 769.472656 C 834.421875 769.375 832.988281 769.183594 831.570312 768.890625 C 831.621094 772.429688 831.078125 775.875 829.941406 779.226562 C 828.804688 782.578125 827.140625 785.640625 824.945312 788.417969 L 824.910156 788.46875 L 824.917969 788.46875 L 824.71875 788.726562 L 824.476562 789.019531 C 823.21875 790.574219 821.824219 791.992188 820.289062 793.273438 C 818.757812 794.554688 817.113281 795.675781 815.359375 796.632812 C 813.609375 797.59375 811.777344 798.375 809.875 798.980469 C 807.96875 799.582031 806.023438 799.992188 804.035156 800.214844 C 802.03125 800.449219 800.027344 800.492188 798.015625 800.339844 C 796.003906 800.183594 794.027344 799.839844 792.082031 799.308594 C 790.136719 798.773438 788.261719 798.058594 786.453125 797.160156 C 784.648438 796.265625 782.945312 795.203125 781.34375 793.980469 L 781.292969 793.9375 L 781.292969 793.949219 L 781.027344 793.746094 L 780.785156 793.546875 L 759.191406 776.53125 L 757.378906 779.691406 C 756.617188 781.023438 755.757812 782.296875 754.808594 783.503906 C 753.855469 784.710938 752.824219 785.84375 751.707031 786.898438 C 750.585938 787.953125 749.398438 788.921875 748.136719 789.800781 C 746.878906 790.683594 745.558594 791.464844 744.183594 792.148438 C 742.808594 792.835938 741.386719 793.414062 739.925781 793.890625 C 738.464844 794.367188 736.976562 794.730469 735.460938 794.988281 C 733.945312 795.246094 732.417969 795.386719 730.878906 795.417969 C 729.34375 795.449219 727.8125 795.367188 726.289062 795.171875 C 724.761719 794.976562 723.261719 794.667969 721.78125 794.253906 C 720.300781 793.835938 718.859375 793.3125 717.457031 792.683594 C 716.054688 792.050781 714.707031 791.324219 713.414062 790.492188 C 712.117188 789.664062 710.890625 788.746094 709.734375 787.734375 C 708.574219 786.726562 707.496094 785.636719 706.496094 784.464844 C 705.5 783.296875 704.59375 782.0625 703.777344 780.757812 C 702.960938 779.453125 702.246094 778.097656 701.632812 776.691406 C 701.015625 775.28125 700.507812 773.835938 700.105469 772.351562 C 699.886719 771.554688 699.699219 770.75 699.550781 769.9375 C 698.769531 770.214844 697.980469 770.464844 697.179688 770.683594 C 695.203125 771.226562 693.1875 771.570312 691.140625 771.714844 C 689.09375 771.859375 687.054688 771.800781 685.019531 771.542969 C 682.984375 771.285156 680.992188 770.828125 679.046875 770.175781 C 677.101562 769.527344 675.238281 768.691406 673.457031 767.667969 L 673.441406 767.65625 C 671.660156 766.636719 669.996094 765.453125 668.453125 764.105469 C 666.90625 762.757812 665.507812 761.273438 664.253906 759.648438 C 663.003906 758.023438 661.921875 756.292969 661.011719 754.453125 C 660.097656 752.617188 659.378906 750.707031 658.84375 748.726562 C 658.574219 747.738281 658.351562 746.730469 658.183594 745.710938 C 657.648438 745.910156 657.109375 746.101562 656.566406 746.273438 C 654.570312 746.945312 652.523438 747.40625 650.433594 747.652344 C 648.339844 747.898438 646.246094 747.925781 644.148438 747.734375 C 642.050781 747.542969 639.996094 747.136719 637.980469 746.515625 C 635.96875 745.894531 634.042969 745.070312 632.199219 744.046875 L 632.179688 744.035156 C 630.140625 742.859375 628.257812 741.46875 626.53125 739.871094 C 624.800781 738.269531 623.273438 736.496094 621.945312 734.550781 C 620.617188 732.605469 619.523438 730.535156 618.660156 728.34375 C 617.796875 726.152344 617.191406 723.890625 616.835938 721.5625 C 616.460938 721.679688 616.082031 721.789062 615.703125 721.890625 C 613.785156 722.402344 611.839844 722.730469 609.863281 722.875 C 607.886719 723.019531 605.914062 722.976562 603.941406 722.75 C 601.972656 722.523438 600.042969 722.117188 598.148438 721.527344 C 596.257812 720.9375 594.4375 720.175781 592.6875 719.246094 C 591.972656 718.863281 592.039062 718.914062 591.863281 718.816406 C 590.097656 717.808594 588.449219 716.640625 586.917969 715.304688 C 585.386719 713.972656 584 712.5 582.757812 710.894531 C 581.519531 709.285156 580.449219 707.570312 579.546875 705.75 C 578.648438 703.929688 577.933594 702.039062 577.410156 700.078125 C 576.214844 695.652344 575.976562 691.175781 576.703125 686.648438 Z M 902.320312 233.011719 C 901.828125 233.011719 901.339844 232.964844 900.859375 232.867188 C 900.375 232.773438 899.90625 232.628906 899.449219 232.441406 C 898.996094 232.253906 898.5625 232.023438 898.152344 231.75 C 897.746094 231.476562 897.367188 231.164062 897.015625 230.816406 C 896.667969 230.46875 896.359375 230.089844 896.085938 229.679688 C 895.8125 229.269531 895.578125 228.839844 895.390625 228.382812 C 895.203125 227.929688 895.0625 227.457031 894.964844 226.976562 C 894.867188 226.492188 894.820312 226.003906 894.820312 225.511719 C 894.820312 225.019531 894.867188 224.53125 894.964844 224.050781 C 895.0625 223.566406 895.203125 223.097656 895.390625 222.640625 C 895.578125 222.1875 895.8125 221.753906 896.085938 221.34375 C 896.359375 220.9375 896.667969 220.558594 897.015625 220.210938 C 897.367188 219.859375 897.746094 219.550781 898.152344 219.277344 C 898.5625 219.003906 898.996094 218.773438 899.449219 218.582031 C 899.90625 218.394531 900.375 218.253906 900.859375 218.15625 C 901.339844 218.058594 901.828125 218.011719 902.320312 218.011719 L 947.292969 218.011719 C 947.785156 218.011719 948.273438 218.058594 948.757812 218.15625 C 949.238281 218.253906 949.707031 218.394531 950.164062 218.582031 C 950.617188 218.773438 951.050781 219.003906 951.460938 219.277344 C 951.871094 219.550781 952.25 219.859375 952.597656 220.210938 C 952.945312 220.558594 953.257812 220.9375 953.53125 221.347656 C 953.804688 221.753906 954.035156 222.1875 954.222656 222.640625 C 954.410156 223.097656 954.554688 223.566406 954.648438 224.050781 C 954.746094 224.53125 954.792969 225.019531 954.792969 225.511719 C 954.792969 226.003906 954.746094 226.492188 954.648438 226.976562 C 954.554688 227.457031 954.410156 227.929688 954.222656 228.382812 C 954.035156 228.839844 953.804688 229.269531 953.53125 229.679688 C 953.257812 230.089844 952.945312 230.46875 952.597656 230.816406 C 952.25 231.164062 951.871094 231.476562 951.460938 231.75 C 951.050781 232.023438 950.617188 232.253906 950.164062 232.441406 C 949.707031 232.628906 949.238281 232.773438 948.757812 232.867188 C 948.273438 232.964844 947.785156 233.011719 947.292969 233.011719 Z M 884.023438 149.835938 C 883.597656 150.070312 883.15625 150.265625 882.691406 150.417969 C 882.230469 150.566406 881.757812 150.671875 881.273438 150.730469 C 880.789062 150.789062 880.304688 150.800781 879.820312 150.765625 C 879.335938 150.726562 878.859375 150.644531 878.390625 150.515625 C 877.921875 150.386719 877.46875 150.210938 877.03125 149.996094 C 876.597656 149.777344 876.1875 149.519531 875.804688 149.21875 C 875.417969 148.921875 875.066406 148.589844 874.746094 148.222656 C 874.425781 147.855469 874.148438 147.460938 873.902344 147.039062 C 873.660156 146.617188 873.460938 146.175781 873.304688 145.714844 C 873.148438 145.253906 873.039062 144.78125 872.976562 144.300781 C 872.910156 143.816406 872.894531 143.332031 872.925781 142.847656 C 872.957031 142.363281 873.035156 141.882812 873.160156 141.414062 C 873.28125 140.945312 873.453125 140.488281 873.664062 140.050781 C 873.878906 139.613281 874.128906 139.203125 874.425781 138.8125 C 874.71875 138.425781 875.046875 138.070312 875.410156 137.746094 C 875.773438 137.421875 876.164062 137.136719 876.582031 136.890625 L 915.53125 114.402344 C 915.957031 114.152344 916.402344 113.945312 916.867188 113.78125 C 917.335938 113.621094 917.8125 113.503906 918.300781 113.4375 C 918.792969 113.371094 919.28125 113.351562 919.773438 113.382812 C 920.269531 113.410156 920.753906 113.488281 921.230469 113.613281 C 921.707031 113.742188 922.167969 113.914062 922.613281 114.128906 C 923.054688 114.347656 923.472656 114.605469 923.863281 114.90625 C 924.257812 115.207031 924.617188 115.542969 924.941406 115.914062 C 925.265625 116.285156 925.550781 116.683594 925.796875 117.113281 C 926.042969 117.542969 926.246094 117.988281 926.402344 118.457031 C 926.558594 118.925781 926.667969 119.40625 926.730469 119.894531 C 926.792969 120.382812 926.808594 120.875 926.769531 121.367188 C 926.734375 121.859375 926.652344 122.34375 926.519531 122.820312 C 926.390625 123.296875 926.210938 123.753906 925.992188 124.195312 C 925.769531 124.636719 925.503906 125.050781 925.199219 125.441406 C 924.894531 125.828125 924.554688 126.183594 924.179688 126.503906 C 923.804688 126.824219 923.402344 127.105469 922.972656 127.347656 L 884.027344 149.835938 Z M 826.640625 86.941406 C 826.390625 87.359375 826.105469 87.75 825.78125 88.113281 C 825.460938 88.476562 825.101562 88.808594 824.714844 89.101562 C 824.328125 89.394531 823.914062 89.648438 823.476562 89.859375 C 823.039062 90.074219 822.585938 90.242188 822.113281 90.367188 C 821.644531 90.488281 821.167969 90.566406 820.679688 90.597656 C 820.195312 90.628906 819.710938 90.613281 819.230469 90.546875 C 818.746094 90.484375 818.273438 90.375 817.8125 90.21875 C 817.351562 90.0625 816.910156 89.863281 816.488281 89.621094 C 816.066406 89.378906 815.671875 89.097656 815.304688 88.777344 C 814.941406 88.457031 814.605469 88.105469 814.308594 87.722656 C 814.011719 87.335938 813.753906 86.925781 813.535156 86.492188 C 813.316406 86.054688 813.144531 85.605469 813.011719 85.136719 C 812.882812 84.667969 812.800781 84.1875 812.765625 83.703125 C 812.726562 83.21875 812.738281 82.734375 812.796875 82.25 C 812.855469 81.769531 812.960938 81.296875 813.113281 80.832031 C 813.261719 80.371094 813.457031 79.925781 813.695312 79.503906 L 836.179688 40.554688 C 836.421875 40.121094 836.699219 39.714844 837.019531 39.335938 C 837.339844 38.957031 837.695312 38.613281 838.082031 38.304688 C 838.472656 38 838.886719 37.730469 839.328125 37.507812 C 839.769531 37.28125 840.230469 37.101562 840.707031 36.96875 C 841.1875 36.835938 841.671875 36.75 842.167969 36.714844 C 842.660156 36.675781 843.152344 36.6875 843.644531 36.75 C 844.136719 36.8125 844.617188 36.921875 845.089844 37.078125 C 845.558594 37.238281 846.007812 37.4375 846.4375 37.6875 C 846.867188 37.933594 847.269531 38.21875 847.644531 38.546875 C 848.015625 38.875 848.351562 39.234375 848.652344 39.628906 C 848.953125 40.023438 849.214844 40.441406 849.429688 40.886719 C 849.648438 41.335938 849.816406 41.796875 849.941406 42.277344 C 850.070312 42.757812 850.144531 43.242188 850.171875 43.738281 C 850.199219 44.234375 850.179688 44.726562 850.109375 45.21875 C 850.039062 45.707031 849.921875 46.1875 849.753906 46.65625 C 849.589844 47.121094 849.378906 47.570312 849.125 47.992188 Z M 573.707031 218.019531 C 574.199219 218.019531 574.6875 218.066406 575.171875 218.164062 C 575.652344 218.257812 576.125 218.402344 576.578125 218.589844 C 577.03125 218.777344 577.464844 219.007812 577.875 219.28125 C 578.285156 219.554688 578.664062 219.867188 579.011719 220.214844 C 579.359375 220.5625 579.671875 220.941406 579.945312 221.351562 C 580.21875 221.761719 580.449219 222.195312 580.636719 222.648438 C 580.824219 223.105469 580.96875 223.574219 581.0625 224.054688 C 581.160156 224.539062 581.207031 225.027344 581.207031 225.519531 C 581.207031 226.011719 581.160156 226.5 581.0625 226.984375 C 580.96875 227.464844 580.824219 227.933594 580.636719 228.390625 C 580.449219 228.84375 580.21875 229.277344 579.945312 229.6875 C 579.671875 230.097656 579.359375 230.476562 579.011719 230.824219 C 578.664062 231.171875 578.285156 231.480469 577.875 231.753906 C 577.464844 232.027344 577.03125 232.261719 576.578125 232.449219 C 576.125 232.636719 575.652344 232.78125 575.171875 232.875 C 574.6875 232.972656 574.199219 233.019531 573.707031 233.019531 L 528.734375 233.019531 C 528.242188 233.019531 527.753906 232.972656 527.273438 232.875 C 526.789062 232.78125 526.320312 232.636719 525.863281 232.449219 C 525.410156 232.261719 524.976562 232.027344 524.566406 231.753906 C 524.160156 231.480469 523.78125 231.171875 523.429688 230.824219 C 523.082031 230.476562 522.773438 230.097656 522.5 229.6875 C 522.226562 229.277344 521.992188 228.84375 521.804688 228.390625 C 521.617188 227.933594 521.476562 227.464844 521.378906 226.984375 C 521.28125 226.5 521.234375 226.011719 521.234375 225.519531 C 521.234375 225.027344 521.28125 224.539062 521.378906 224.054688 C 521.476562 223.574219 521.617188 223.105469 521.804688 222.648438 C 521.992188 222.195312 522.226562 221.761719 522.5 221.351562 C 522.773438 220.941406 523.082031 220.5625 523.429688 220.214844 C 523.78125 219.867188 524.160156 219.554688 524.566406 219.28125 C 524.976562 219.007812 525.410156 218.777344 525.863281 218.589844 C 526.320312 218.402344 526.789062 218.257812 527.273438 218.164062 C 527.753906 218.066406 528.242188 218.019531 528.734375 218.019531 Z M 599.441406 136.890625 C 599.863281 137.136719 600.261719 137.417969 600.632812 137.742188 C 601 138.0625 601.335938 138.417969 601.632812 138.808594 C 601.933594 139.195312 602.191406 139.609375 602.410156 140.046875 C 602.625 140.488281 602.800781 140.945312 602.925781 141.417969 C 603.054688 141.890625 603.136719 142.371094 603.167969 142.859375 C 603.199219 143.347656 603.1875 143.835938 603.121094 144.324219 C 603.058594 144.808594 602.949219 145.285156 602.792969 145.75 C 602.636719 146.210938 602.4375 146.65625 602.191406 147.082031 C 601.949219 147.507812 601.664062 147.90625 601.34375 148.273438 C 601.019531 148.644531 600.664062 148.976562 600.277344 149.277344 C 599.886719 149.574219 599.472656 149.832031 599.035156 150.050781 C 598.59375 150.269531 598.140625 150.441406 597.667969 150.570312 C 597.191406 150.695312 596.710938 150.777344 596.222656 150.808594 C 595.734375 150.84375 595.246094 150.828125 594.761719 150.765625 C 594.273438 150.703125 593.800781 150.59375 593.335938 150.4375 C 592.871094 150.277344 592.425781 150.078125 592 149.835938 L 553.054688 127.347656 C 552.632812 127.101562 552.242188 126.816406 551.878906 126.492188 C 551.515625 126.167969 551.1875 125.8125 550.894531 125.425781 C 550.601562 125.035156 550.347656 124.625 550.132812 124.1875 C 549.921875 123.75 549.75 123.292969 549.628906 122.824219 C 549.503906 122.351562 549.425781 121.875 549.394531 121.390625 C 549.363281 120.902344 549.382812 120.417969 549.445312 119.9375 C 549.507812 119.453125 549.617188 118.984375 549.773438 118.523438 C 549.929688 118.0625 550.128906 117.621094 550.375 117.199219 C 550.617188 116.777344 550.898438 116.382812 551.214844 116.015625 C 551.535156 115.648438 551.886719 115.316406 552.273438 115.015625 C 552.65625 114.71875 553.066406 114.460938 553.503906 114.242188 C 553.9375 114.023438 554.390625 113.851562 554.859375 113.722656 C 555.328125 113.59375 555.804688 113.507812 556.289062 113.472656 C 556.773438 113.4375 557.257812 113.449219 557.742188 113.507812 C 558.226562 113.566406 558.699219 113.667969 559.160156 113.820312 C 559.625 113.972656 560.066406 114.164062 560.492188 114.402344 Z M 662.332031 79.503906 C 662.582031 79.925781 662.789062 80.375 662.953125 80.839844 C 663.117188 81.304688 663.230469 81.785156 663.296875 82.273438 C 663.367188 82.761719 663.382812 83.253906 663.355469 83.746094 C 663.324219 84.238281 663.246094 84.722656 663.121094 85.203125 C 662.996094 85.679688 662.824219 86.140625 662.605469 86.582031 C 662.386719 87.027344 662.128906 87.445312 661.828125 87.835938 C 661.527344 88.226562 661.191406 88.585938 660.820312 88.910156 C 660.449219 89.238281 660.050781 89.523438 659.621094 89.769531 C 659.195312 90.015625 658.746094 90.214844 658.277344 90.375 C 657.808594 90.53125 657.332031 90.640625 656.839844 90.703125 C 656.351562 90.765625 655.859375 90.777344 655.367188 90.742188 C 654.875 90.707031 654.390625 90.625 653.914062 90.492188 C 653.4375 90.359375 652.980469 90.183594 652.539062 89.960938 C 652.097656 89.738281 651.683594 89.476562 651.296875 89.171875 C 650.90625 88.867188 650.550781 88.527344 650.230469 88.152344 C 649.910156 87.777344 649.628906 87.371094 649.386719 86.941406 L 626.902344 47.992188 C 626.664062 47.570312 626.46875 47.125 626.320312 46.664062 C 626.167969 46.199219 626.0625 45.726562 626.003906 45.246094 C 625.945312 44.761719 625.933594 44.277344 625.972656 43.792969 C 626.007812 43.304688 626.089844 42.828125 626.21875 42.359375 C 626.347656 41.890625 626.523438 41.4375 626.742188 41.003906 C 626.960938 40.570312 627.21875 40.160156 627.515625 39.773438 C 627.8125 39.390625 628.144531 39.039062 628.511719 38.71875 C 628.878906 38.398438 629.273438 38.117188 629.695312 37.875 C 630.117188 37.632812 630.558594 37.433594 631.019531 37.277344 C 631.480469 37.121094 631.953125 37.011719 632.433594 36.945312 C 632.917969 36.882812 633.402344 36.867188 633.886719 36.898438 C 634.375 36.925781 634.851562 37.003906 635.320312 37.128906 C 635.792969 37.253906 636.246094 37.421875 636.683594 37.636719 C 637.121094 37.847656 637.535156 38.101562 637.921875 38.394531 C 638.308594 38.6875 638.667969 39.015625 638.988281 39.378906 C 639.3125 39.746094 639.597656 40.136719 639.847656 40.554688 Z M 745.511719 61.203125 C 745.511719 61.695312 745.464844 62.183594 745.367188 62.667969 C 745.269531 63.152344 745.128906 63.621094 744.941406 64.074219 C 744.753906 64.53125 744.519531 64.960938 744.246094 65.371094 C 743.972656 65.78125 743.664062 66.160156 743.316406 66.507812 C 742.964844 66.855469 742.585938 67.167969 742.179688 67.441406 C 741.769531 67.714844 741.335938 67.945312 740.882812 68.132812 C 740.425781 68.324219 739.957031 68.464844 739.472656 68.5625 C 738.992188 68.65625 738.503906 68.703125 738.011719 68.703125 C 737.519531 68.703125 737.03125 68.65625 736.546875 68.5625 C 736.066406 68.464844 735.597656 68.324219 735.140625 68.132812 C 734.6875 67.945312 734.253906 67.714844 733.84375 67.441406 C 733.433594 67.167969 733.054688 66.855469 732.707031 66.507812 C 732.359375 66.160156 732.046875 65.78125 731.773438 65.371094 C 731.5 64.960938 731.269531 64.53125 731.082031 64.074219 C 730.894531 63.621094 730.75 63.152344 730.65625 62.667969 C 730.558594 62.183594 730.511719 61.695312 730.511719 61.203125 L 730.511719 16.234375 C 730.511719 15.742188 730.558594 15.253906 730.65625 14.773438 C 730.75 14.289062 730.894531 13.820312 731.082031 13.363281 C 731.269531 12.910156 731.5 12.476562 731.773438 12.066406 C 732.046875 11.660156 732.359375 11.28125 732.707031 10.929688 C 733.054688 10.582031 733.433594 10.273438 733.84375 10 C 734.253906 9.726562 734.6875 9.492188 735.140625 9.304688 C 735.597656 9.117188 736.066406 8.976562 736.546875 8.878906 C 737.03125 8.78125 737.519531 8.734375 738.011719 8.734375 C 738.503906 8.734375 738.992188 8.78125 739.472656 8.878906 C 739.957031 8.976562 740.425781 9.117188 740.882812 9.304688 C 741.335938 9.492188 741.769531 9.726562 742.179688 10 C 742.585938 10.273438 742.964844 10.582031 743.316406 10.929688 C 743.664062 11.28125 743.972656 11.660156 744.246094 12.066406 C 744.519531 12.476562 744.753906 12.910156 744.941406 13.363281 C 745.128906 13.820312 745.269531 14.289062 745.367188 14.773438 C 745.464844 15.253906 745.511719 15.742188 745.511719 16.234375 L 745.511719 61.214844 Z M 678.046875 211.484375 C 678.046875 211.980469 678 212.464844 677.902344 212.949219 C 677.808594 213.433594 677.664062 213.902344 677.476562 214.355469 C 677.289062 214.8125 677.058594 215.242188 676.785156 215.652344 C 676.507812 216.0625 676.199219 216.441406 675.851562 216.789062 C 675.503906 217.136719 675.125 217.449219 674.714844 217.722656 C 674.304688 217.996094 673.871094 218.226562 673.417969 218.414062 C 672.960938 218.605469 672.492188 218.746094 672.011719 218.84375 C 671.527344 218.9375 671.039062 218.988281 670.546875 218.988281 C 670.054688 218.988281 669.566406 218.9375 669.082031 218.84375 C 668.601562 218.746094 668.132812 218.605469 667.675781 218.414062 C 667.222656 218.226562 666.789062 217.996094 666.378906 217.722656 C 665.96875 217.449219 665.589844 217.136719 665.242188 216.789062 C 664.894531 216.441406 664.585938 216.0625 664.3125 215.652344 C 664.035156 215.242188 663.804688 214.8125 663.617188 214.355469 C 663.429688 213.902344 663.285156 213.433594 663.191406 212.949219 C 663.09375 212.464844 663.046875 211.980469 663.046875 211.484375 C 663.046875 210.257812 663.078125 209.03125 663.136719 207.808594 C 663.199219 206.582031 663.289062 205.359375 663.40625 204.136719 C 663.527344 202.917969 663.679688 201.699219 663.859375 200.484375 C 664.039062 199.273438 664.25 198.0625 664.488281 196.859375 C 664.726562 195.65625 664.996094 194.460938 665.292969 193.269531 C 665.59375 192.082031 665.917969 190.898438 666.277344 189.722656 C 666.632812 188.550781 667.015625 187.386719 667.429688 186.230469 C 667.84375 185.074219 668.285156 183.929688 668.753906 182.796875 C 669.222656 181.664062 669.722656 180.542969 670.246094 179.433594 C 670.769531 178.324219 671.320312 177.230469 671.902344 176.148438 C 672.480469 175.066406 673.082031 173.996094 673.714844 172.945312 C 674.34375 171.894531 675 170.855469 675.683594 169.835938 C 676.363281 168.816406 677.070312 167.8125 677.800781 166.828125 C 678.53125 165.84375 679.289062 164.875 680.066406 163.929688 C 680.84375 162.980469 681.644531 162.050781 682.46875 161.140625 C 683.292969 160.234375 684.140625 159.34375 685.007812 158.476562 C 685.875 157.609375 686.761719 156.765625 687.671875 155.941406 C 688.582031 155.117188 689.511719 154.316406 690.457031 153.539062 C 691.40625 152.757812 692.375 152.003906 693.359375 151.273438 C 694.34375 150.542969 695.347656 149.835938 696.367188 149.15625 C 697.386719 148.472656 698.425781 147.816406 699.476562 147.1875 C 700.53125 146.554688 701.597656 145.953125 702.679688 145.375 C 703.761719 144.796875 704.855469 144.242188 705.964844 143.71875 C 707.074219 143.195312 708.195312 142.699219 709.328125 142.230469 C 710.464844 141.757812 711.609375 141.316406 712.761719 140.90625 C 713.917969 140.492188 715.082031 140.105469 716.257812 139.75 C 717.429688 139.394531 718.613281 139.066406 719.804688 138.769531 C 720.992188 138.472656 722.191406 138.203125 723.394531 137.964844 C 724.597656 137.726562 725.804688 137.515625 727.019531 137.335938 C 728.234375 137.15625 729.449219 137.003906 730.671875 136.886719 C 731.890625 136.765625 733.117188 136.675781 734.339844 136.613281 C 735.566406 136.554688 736.792969 136.523438 738.019531 136.523438 C 738.511719 136.523438 739 136.574219 739.484375 136.667969 C 739.964844 136.765625 740.433594 136.90625 740.890625 137.097656 C 741.34375 137.285156 741.777344 137.515625 742.1875 137.789062 C 742.597656 138.0625 742.972656 138.375 743.324219 138.722656 C 743.671875 139.070312 743.980469 139.449219 744.253906 139.859375 C 744.527344 140.269531 744.761719 140.699219 744.949219 141.15625 C 745.136719 141.609375 745.28125 142.078125 745.375 142.5625 C 745.472656 143.046875 745.519531 143.53125 745.519531 144.027344 C 745.519531 144.519531 745.472656 145.003906 745.375 145.488281 C 745.28125 145.972656 745.136719 146.441406 744.949219 146.894531 C 744.761719 147.351562 744.527344 147.78125 744.253906 148.191406 C 743.980469 148.601562 743.671875 148.980469 743.324219 149.328125 C 742.972656 149.675781 742.597656 149.988281 742.1875 150.261719 C 741.777344 150.535156 741.34375 150.765625 740.890625 150.953125 C 740.433594 151.144531 739.964844 151.285156 739.484375 151.382812 C 739 151.476562 738.511719 151.527344 738.019531 151.527344 C 736.054688 151.527344 734.097656 151.621094 732.140625 151.8125 C 730.1875 152.007812 728.246094 152.292969 726.320312 152.675781 C 724.394531 153.058594 722.492188 153.535156 720.613281 154.105469 C 718.730469 154.675781 716.886719 155.335938 715.070312 156.089844 C 713.257812 156.839844 711.484375 157.679688 709.75 158.605469 C 708.019531 159.53125 706.335938 160.539062 704.703125 161.628906 C 703.070312 162.722656 701.492188 163.890625 699.976562 165.136719 C 698.457031 166.382812 697.003906 167.699219 695.617188 169.085938 C 694.226562 170.476562 692.910156 171.929688 691.664062 173.449219 C 690.417969 174.964844 689.25 176.542969 688.15625 178.175781 C 687.066406 179.808594 686.058594 181.492188 685.132812 183.222656 C 684.207031 184.953125 683.367188 186.726562 682.617188 188.542969 C 681.863281 190.355469 681.203125 192.203125 680.632812 194.082031 C 680.0625 195.960938 679.585938 197.867188 679.203125 199.792969 C 678.820312 201.71875 678.535156 203.660156 678.339844 205.613281 C 678.148438 207.566406 678.050781 209.527344 678.050781 211.492188 Z M 663.550781 320.15625 C 662.648438 320.15625 661.75 320.199219 660.851562 320.289062 C 659.953125 320.375 659.0625 320.507812 658.179688 320.683594 C 657.292969 320.859375 656.421875 321.078125 655.558594 321.339844 C 654.695312 321.601562 653.847656 321.90625 653.015625 322.25 C 652.179688 322.59375 651.367188 322.980469 650.574219 323.40625 C 649.777344 323.832031 649.003906 324.292969 648.253906 324.792969 C 647.503906 325.292969 646.78125 325.832031 646.085938 326.402344 C 645.386719 326.976562 644.722656 327.578125 644.082031 328.21875 C 643.445312 328.855469 642.839844 329.523438 642.269531 330.21875 C 641.699219 330.917969 641.160156 331.640625 640.660156 332.390625 C 640.160156 333.140625 639.695312 333.910156 639.269531 334.707031 C 638.847656 335.5 638.460938 336.316406 638.117188 337.148438 C 637.769531 337.980469 637.46875 338.828125 637.207031 339.691406 C 636.945312 340.554688 636.726562 341.429688 636.550781 342.3125 C 636.375 343.195312 636.242188 344.089844 636.152344 344.984375 C 636.066406 345.882812 636.019531 346.78125 636.019531 347.683594 C 636.019531 348.585938 636.066406 349.484375 636.152344 350.382812 C 636.242188 351.277344 636.375 352.167969 636.550781 353.054688 C 636.726562 353.9375 636.945312 354.8125 637.207031 355.675781 C 637.46875 356.539062 637.769531 357.386719 638.117188 358.21875 C 638.460938 359.050781 638.847656 359.867188 639.269531 360.660156 C 639.695312 361.457031 640.160156 362.226562 640.660156 362.976562 C 641.160156 363.726562 641.699219 364.449219 642.269531 365.148438 C 642.839844 365.84375 643.445312 366.511719 644.082031 367.148438 C 644.722656 367.785156 645.386719 368.390625 646.085938 368.964844 C 646.78125 369.535156 647.503906 370.070312 648.253906 370.574219 C 649.003906 371.074219 649.777344 371.535156 650.574219 371.960938 C 651.367188 372.386719 652.179688 372.773438 653.015625 373.117188 C 653.847656 373.460938 654.695312 373.765625 655.558594 374.027344 C 656.421875 374.289062 657.292969 374.507812 658.179688 374.683594 C 659.0625 374.859375 659.953125 374.992188 660.851562 375.078125 C 661.75 375.167969 662.648438 375.210938 663.550781 375.210938 L 670.566406 375.210938 L 670.566406 376.570312 C 670.574219 378.386719 670.710938 380.191406 670.980469 381.988281 C 671.253906 383.785156 671.652344 385.550781 672.183594 387.289062 C 672.710938 389.027344 673.367188 390.71875 674.144531 392.359375 C 674.921875 394 675.816406 395.578125 676.824219 397.089844 C 677.832031 398.597656 678.945312 400.027344 680.164062 401.375 C 681.382812 402.722656 682.695312 403.972656 684.097656 405.128906 C 685.5 406.285156 686.976562 407.332031 688.535156 408.269531 C 690.089844 409.207031 691.707031 410.027344 693.382812 410.726562 C 693.523438 412.09375 693.726562 413.449219 693.996094 414.792969 C 694.261719 416.140625 694.589844 417.472656 694.980469 418.789062 C 695.367188 420.105469 695.816406 421.398438 696.324219 422.675781 C 696.832031 423.949219 697.394531 425.199219 698.019531 426.421875 C 698.640625 427.644531 699.316406 428.835938 700.050781 429.996094 C 700.78125 431.160156 701.566406 432.285156 702.398438 433.371094 C 703.234375 434.460938 704.117188 435.511719 705.046875 436.519531 C 705.980469 437.527344 706.953125 438.488281 707.972656 439.410156 C 708.992188 440.328125 710.054688 441.195312 711.152344 442.019531 C 712.25 442.839844 713.386719 443.609375 714.554688 444.328125 C 715.726562 445.042969 716.925781 445.707031 718.15625 446.3125 C 719.386719 446.921875 720.644531 447.46875 721.925781 447.960938 C 723.207031 448.453125 724.507812 448.886719 725.828125 449.257812 C 727.148438 449.632812 728.484375 449.945312 729.832031 450.195312 C 731.183594 450.445312 732.539062 450.632812 733.90625 450.757812 C 735.273438 450.882812 736.640625 450.945312 738.015625 450.945312 C 739.386719 450.945312 740.757812 450.882812 742.121094 450.757812 C 743.488281 450.632812 744.847656 450.445312 746.195312 450.195312 C 747.546875 449.945312 748.878906 449.632812 750.203125 449.257812 C 751.523438 448.886719 752.824219 448.453125 754.105469 447.960938 C 755.386719 447.46875 756.640625 446.921875 757.871094 446.3125 C 759.101562 445.707031 760.300781 445.042969 761.472656 444.328125 C 762.640625 443.609375 763.777344 442.839844 764.875 442.019531 C 765.976562 441.195312 767.035156 440.328125 768.054688 439.410156 C 769.074219 438.488281 770.050781 437.527344 770.980469 436.519531 C 771.910156 435.511719 772.792969 434.460938 773.628906 433.371094 C 774.464844 432.285156 775.246094 431.160156 775.980469 429.996094 C 776.710938 428.835938 777.386719 427.644531 778.011719 426.421875 C 778.632812 425.199219 779.199219 423.949219 779.707031 422.675781 C 780.214844 421.398438 780.660156 420.105469 781.050781 418.789062 C 781.4375 417.472656 781.765625 416.140625 782.035156 414.792969 C 782.300781 413.449219 782.503906 412.09375 782.648438 410.726562 C 784.324219 410.027344 785.9375 409.207031 787.496094 408.269531 C 789.050781 407.332031 790.53125 406.285156 791.929688 405.128906 C 793.332031 403.972656 794.644531 402.722656 795.863281 401.375 C 797.082031 400.027344 798.195312 398.597656 799.203125 397.089844 C 800.210938 395.578125 801.105469 394 801.882812 392.359375 C 802.660156 390.71875 803.316406 389.027344 803.84375 387.289062 C 804.375 385.550781 804.773438 383.785156 805.046875 381.988281 C 805.316406 380.191406 805.453125 378.386719 805.460938 376.570312 L 805.460938 375.210938 L 812.480469 375.210938 C 813.382812 375.210938 814.28125 375.167969 815.175781 375.078125 C 816.074219 374.992188 816.964844 374.859375 817.851562 374.683594 C 818.734375 374.507812 819.609375 374.289062 820.46875 374.027344 C 821.332031 373.765625 822.179688 373.460938 823.015625 373.117188 C 823.847656 372.773438 824.660156 372.386719 825.457031 371.960938 C 826.25 371.535156 827.023438 371.074219 827.773438 370.574219 C 828.523438 370.070312 829.246094 369.535156 829.945312 368.964844 C 830.640625 368.390625 831.308594 367.785156 831.945312 367.148438 C 832.582031 366.511719 833.1875 365.84375 833.757812 365.148438 C 834.332031 364.449219 834.867188 363.726562 835.367188 362.976562 C 835.871094 362.226562 836.332031 361.457031 836.757812 360.660156 C 837.183594 359.867188 837.566406 359.050781 837.914062 358.21875 C 838.257812 357.386719 838.5625 356.539062 838.824219 355.675781 C 839.085938 354.8125 839.304688 353.9375 839.480469 353.054688 C 839.65625 352.167969 839.789062 351.277344 839.875 350.382812 C 839.964844 349.484375 840.007812 348.585938 840.007812 347.683594 C 840.007812 346.78125 839.964844 345.882812 839.875 344.984375 C 839.789062 344.089844 839.65625 343.195312 839.480469 342.3125 C 839.304688 341.429688 839.085938 340.554688 838.824219 339.691406 C 838.5625 338.828125 838.257812 337.980469 837.914062 337.148438 C 837.566406 336.316406 837.183594 335.5 836.757812 334.707031 C 836.332031 333.910156 835.871094 333.140625 835.367188 332.390625 C 834.867188 331.640625 834.332031 330.917969 833.757812 330.21875 C 833.1875 329.523438 832.582031 328.855469 831.945312 328.21875 C 831.308594 327.578125 830.640625 326.976562 829.945312 326.402344 C 829.246094 325.832031 828.523438 325.292969 827.773438 324.792969 C 827.023438 324.292969 826.25 323.832031 825.457031 323.40625 C 824.660156 322.980469 823.847656 322.59375 823.015625 322.25 C 822.179688 321.90625 821.332031 321.601562 820.46875 321.339844 C 819.609375 321.078125 818.734375 320.859375 817.851562 320.683594 C 816.964844 320.507812 816.074219 320.375 815.175781 320.289062 C 814.28125 320.199219 813.382812 320.15625 812.480469 320.15625 L 806.300781 320.15625 C 806.785156 318.027344 807.492188 315.972656 808.414062 313.996094 C 810.476562 309.660156 813.351562 305.953125 817.039062 302.878906 C 818.613281 301.539062 820.152344 300.164062 821.660156 298.746094 C 823.164062 297.332031 824.632812 295.878906 826.066406 294.386719 C 827.5 292.894531 828.890625 291.371094 830.246094 289.808594 C 831.601562 288.246094 832.914062 286.652344 834.1875 285.023438 C 835.460938 283.394531 836.691406 281.734375 837.882812 280.042969 C 839.070312 278.351562 840.214844 276.632812 841.316406 274.882812 C 842.417969 273.136719 843.476562 271.359375 844.488281 269.554688 C 845.5 267.753906 846.464844 265.925781 847.382812 264.074219 C 848.300781 262.222656 849.171875 260.347656 849.996094 258.453125 C 850.820312 256.558594 851.59375 254.640625 852.320312 252.707031 C 853.046875 250.769531 853.722656 248.816406 854.351562 246.847656 C 854.980469 244.878906 855.554688 242.894531 856.082031 240.894531 C 856.609375 238.894531 857.082031 236.882812 857.507812 234.863281 C 857.929688 232.839844 858.304688 230.804688 858.625 228.761719 C 858.945312 226.722656 859.214844 224.671875 859.429688 222.617188 C 859.648438 220.5625 859.8125 218.5 859.925781 216.4375 C 860.035156 214.371094 860.097656 212.308594 860.105469 210.238281 C 860.109375 208.171875 860.066406 206.105469 859.96875 204.042969 C 859.871094 201.976562 859.71875 199.914062 859.519531 197.859375 C 859.316406 195.800781 859.0625 193.75 858.753906 191.707031 C 858.449219 189.660156 858.089844 187.625 857.679688 185.601562 C 857.269531 183.574219 856.808594 181.558594 856.296875 179.558594 C 855.785156 177.554688 855.222656 175.566406 854.609375 173.59375 C 853.996094 171.617188 853.332031 169.660156 852.617188 167.71875 C 851.90625 165.78125 851.144531 163.859375 850.335938 161.957031 C 849.523438 160.054688 848.667969 158.175781 847.761719 156.316406 C 846.855469 154.460938 845.902344 152.625 844.902344 150.816406 C 843.90625 149.003906 842.859375 147.222656 841.769531 145.464844 C 840.679688 143.707031 839.546875 141.980469 838.371094 140.28125 C 837.195312 138.582031 835.972656 136.914062 834.710938 135.277344 C 833.449219 133.640625 832.148438 132.035156 830.804688 130.464844 C 829.460938 128.894531 828.078125 127.355469 826.65625 125.855469 C 825.234375 124.355469 823.777344 122.890625 822.28125 121.464844 C 820.785156 120.039062 819.253906 118.652344 817.6875 117.300781 C 816.121094 115.953125 814.519531 114.644531 812.886719 113.375 C 811.253906 112.109375 809.589844 110.882812 807.894531 109.699219 C 806.199219 108.515625 804.476562 107.378906 802.722656 106.28125 C 800.972656 105.1875 799.191406 104.136719 797.386719 103.128906 C 795.578125 102.125 793.75 101.167969 791.894531 100.253906 C 790.039062 99.34375 788.160156 98.476562 786.261719 97.660156 C 784.363281 96.84375 782.445312 96.074219 780.507812 95.355469 C 778.570312 94.636719 776.613281 93.964844 774.640625 93.347656 C 772.671875 92.726562 770.683594 92.15625 768.683594 91.636719 C 766.683594 91.117188 764.667969 90.648438 762.644531 90.234375 C 760.621094 89.816406 758.585938 89.449219 756.542969 89.136719 C 754.5 88.824219 752.449219 88.5625 750.394531 88.351562 C 748.335938 88.140625 746.277344 87.984375 744.210938 87.878906 C 742.148438 87.773438 740.082031 87.722656 738.015625 87.722656 C 735.945312 87.722656 733.882812 87.773438 731.816406 87.878906 C 729.753906 87.984375 727.691406 88.140625 725.636719 88.351562 C 723.578125 88.5625 721.527344 88.824219 719.484375 89.136719 C 717.441406 89.449219 715.410156 89.816406 713.382812 90.234375 C 711.359375 90.648438 709.347656 91.117188 707.34375 91.636719 C 705.34375 92.15625 703.359375 92.726562 701.386719 93.347656 C 699.414062 93.964844 697.460938 94.636719 695.519531 95.355469 C 693.582031 96.074219 691.664062 96.84375 689.765625 97.660156 C 687.867188 98.476562 685.988281 99.34375 684.136719 100.253906 C 682.28125 101.167969 680.449219 102.125 678.644531 103.128906 C 676.835938 104.136719 675.058594 105.1875 673.304688 106.28125 C 671.550781 107.378906 669.828125 108.515625 668.132812 109.699219 C 666.4375 110.882812 664.773438 112.109375 663.140625 113.375 C 661.507812 114.644531 659.910156 115.953125 658.34375 117.300781 C 656.777344 118.652344 655.246094 120.039062 653.75 121.464844 C 652.253906 122.890625 650.792969 124.355469 649.371094 125.855469 C 647.949219 127.355469 646.570312 128.894531 645.226562 130.464844 C 643.882812 132.035156 642.578125 133.640625 641.316406 135.277344 C 640.054688 136.914062 638.835938 138.582031 637.65625 140.28125 C 636.480469 141.980469 635.347656 143.707031 634.257812 145.464844 C 633.167969 147.222656 632.125 149.003906 631.125 150.816406 C 630.125 152.625 629.175781 154.460938 628.269531 156.316406 C 627.363281 158.175781 626.503906 160.054688 625.695312 161.957031 C 624.882812 163.859375 624.121094 165.78125 623.410156 167.71875 C 622.695312 169.660156 622.035156 171.617188 621.421875 173.59375 C 620.808594 175.566406 620.246094 177.554688 619.734375 179.558594 C 619.21875 181.558594 618.757812 183.574219 618.347656 185.601562 C 617.9375 187.625 617.582031 189.660156 617.273438 191.707031 C 616.96875 193.75 616.714844 195.800781 616.511719 197.859375 C 616.308594 199.914062 616.160156 201.976562 616.0625 204.042969 C 615.964844 206.105469 615.917969 208.171875 615.925781 210.238281 C 615.933594 212.308594 615.992188 214.371094 616.105469 216.4375 C 616.214844 218.5 616.378906 220.5625 616.597656 222.617188 C 616.8125 224.671875 617.082031 226.722656 617.402344 228.761719 C 617.726562 230.804688 618.097656 232.839844 618.519531 234.863281 C 618.945312 236.882812 619.421875 238.894531 619.945312 240.894531 C 620.472656 242.894531 621.050781 244.878906 621.675781 246.847656 C 622.304688 248.816406 622.980469 250.769531 623.707031 252.707031 C 624.433594 254.640625 625.207031 256.558594 626.03125 258.453125 C 626.855469 260.347656 627.726562 262.222656 628.644531 264.074219 C 629.5625 265.925781 630.527344 267.753906 631.539062 269.554688 C 632.550781 271.359375 633.609375 273.136719 634.710938 274.882812 C 635.8125 276.632812 636.957031 278.351562 638.148438 280.042969 C 639.335938 281.734375 640.566406 283.394531 641.839844 285.023438 C 643.113281 286.652344 644.429688 288.246094 645.78125 289.808594 C 647.136719 291.371094 648.53125 292.894531 649.960938 294.386719 C 651.394531 295.878906 652.863281 297.332031 654.367188 298.746094 C 655.875 300.164062 657.414062 301.539062 658.992188 302.878906 C 662.675781 305.953125 665.550781 309.660156 667.613281 313.996094 C 668.539062 315.972656 669.242188 318.027344 669.730469 320.15625 Z M 684.933594 320.15625 L 791.09375 320.15625 C 791.761719 315.8125 793.023438 311.652344 794.882812 307.667969 C 797.867188 301.371094 802.03125 295.988281 807.371094 291.515625 C 808.753906 290.339844 810.101562 289.132812 811.421875 287.890625 C 812.742188 286.648438 814.027344 285.371094 815.28125 284.0625 C 816.535156 282.757812 817.757812 281.417969 818.941406 280.046875 C 820.128906 278.679688 821.28125 277.277344 822.394531 275.851562 C 823.511719 274.421875 824.589844 272.964844 825.632812 271.484375 C 826.671875 270 827.675781 268.492188 828.640625 266.957031 C 829.605469 265.425781 830.53125 263.867188 831.417969 262.285156 C 832.300781 260.703125 833.148438 259.101562 833.953125 257.476562 C 834.753906 255.855469 835.519531 254.210938 836.238281 252.546875 C 836.960938 250.886719 837.636719 249.207031 838.273438 247.507812 C 838.910156 245.8125 839.503906 244.101562 840.050781 242.371094 C 840.597656 240.644531 841.105469 238.90625 841.5625 237.152344 C 842.023438 235.402344 842.441406 233.636719 842.8125 231.863281 C 843.183594 230.089844 843.507812 228.308594 843.789062 226.515625 C 844.066406 224.726562 844.304688 222.929688 844.492188 221.128906 C 844.679688 219.324219 844.824219 217.519531 844.921875 215.710938 C 845.019531 213.902344 845.070312 212.089844 845.074219 210.277344 C 845.082031 208.464844 845.039062 206.65625 844.953125 204.84375 C 844.867188 203.035156 844.734375 201.226562 844.558594 199.425781 C 844.378906 197.621094 844.15625 195.824219 843.886719 194.03125 C 843.617188 192.238281 843.300781 190.457031 842.941406 188.679688 C 842.582031 186.902344 842.175781 185.136719 841.726562 183.382812 C 841.277344 181.625 840.78125 179.882812 840.242188 178.152344 C 839.707031 176.421875 839.125 174.707031 838.5 173.007812 C 837.871094 171.304688 837.203125 169.621094 836.492188 167.953125 C 835.78125 166.289062 835.03125 164.640625 834.234375 163.011719 C 833.441406 161.382812 832.605469 159.773438 831.730469 158.1875 C 830.851562 156.601562 829.9375 155.039062 828.980469 153.5 C 828.027344 151.960938 827.03125 150.445312 826 148.957031 C 824.964844 147.46875 823.898438 146.003906 822.789062 144.570312 C 821.683594 143.136719 820.542969 141.730469 819.363281 140.351562 C 818.183594 138.976562 816.972656 137.628906 815.726562 136.3125 C 814.480469 135 813.199219 133.714844 811.890625 132.464844 C 810.578125 131.214844 809.234375 130 807.863281 128.816406 C 806.488281 127.632812 805.085938 126.488281 803.652344 125.375 C 802.222656 124.265625 800.761719 123.191406 799.277344 122.152344 C 797.792969 121.117188 796.28125 120.117188 794.742188 119.160156 C 793.207031 118.199219 791.644531 117.277344 790.0625 116.394531 C 788.476562 115.515625 786.875 114.675781 785.246094 113.875 C 783.621094 113.078125 781.976562 112.320312 780.3125 111.601562 C 778.644531 110.886719 776.964844 110.214844 775.265625 109.582031 C 773.566406 108.953125 771.851562 108.367188 770.125 107.820312 C 768.394531 107.277344 766.652344 106.777344 764.898438 106.324219 C 763.144531 105.867188 761.378906 105.457031 759.605469 105.09375 C 757.832031 104.726562 756.046875 104.40625 754.257812 104.132812 C 752.464844 103.859375 750.667969 103.628906 748.867188 103.445312 C 747.0625 103.261719 745.257812 103.125 743.445312 103.03125 C 741.636719 102.9375 739.824219 102.894531 738.011719 102.894531 C 736.203125 102.894531 734.390625 102.9375 732.582031 103.03125 C 730.769531 103.125 728.964844 103.261719 727.160156 103.445312 C 725.359375 103.628906 723.5625 103.859375 721.769531 104.132812 C 719.980469 104.40625 718.195312 104.726562 716.421875 105.09375 C 714.644531 105.457031 712.882812 105.867188 711.128906 106.324219 C 709.375 106.777344 707.632812 107.277344 705.902344 107.820312 C 704.175781 108.367188 702.460938 108.953125 700.761719 109.582031 C 699.0625 110.214844 697.382812 110.886719 695.714844 111.601562 C 694.050781 112.320312 692.40625 113.078125 690.78125 113.875 C 689.152344 114.675781 687.546875 115.515625 685.964844 116.394531 C 684.382812 117.277344 682.820312 118.199219 681.285156 119.160156 C 679.746094 120.117188 678.234375 121.117188 676.75 122.152344 C 675.261719 123.191406 673.804688 124.265625 672.371094 125.375 C 670.941406 126.488281 669.539062 127.632812 668.164062 128.816406 C 666.792969 130 665.449219 131.214844 664.136719 132.464844 C 662.828125 133.714844 661.546875 135 660.300781 136.3125 C 659.054688 137.628906 657.84375 138.976562 656.664062 140.351562 C 655.484375 141.730469 654.34375 143.136719 653.238281 144.570312 C 652.128906 146.003906 651.058594 147.46875 650.027344 148.957031 C 648.996094 150.445312 648 151.960938 647.046875 153.5 C 646.089844 155.039062 645.175781 156.601562 644.296875 158.1875 C 643.421875 159.773438 642.585938 161.382812 641.792969 163.011719 C 640.996094 164.640625 640.246094 166.289062 639.535156 167.953125 C 638.824219 169.621094 638.152344 171.304688 637.527344 173.007812 C 636.902344 174.707031 636.320312 176.421875 635.785156 178.152344 C 635.246094 179.882812 634.75 181.625 634.300781 183.382812 C 633.851562 185.136719 633.445312 186.902344 633.085938 188.679688 C 632.726562 190.457031 632.410156 192.238281 632.140625 194.03125 C 631.871094 195.824219 631.648438 197.621094 631.46875 199.425781 C 631.292969 201.226562 631.160156 203.035156 631.074219 204.84375 C 630.984375 206.65625 630.945312 208.464844 630.949219 210.277344 C 630.957031 212.089844 631.007812 213.902344 631.105469 215.710938 C 631.203125 217.519531 631.347656 219.324219 631.535156 221.128906 C 631.722656 222.929688 631.960938 224.726562 632.238281 226.515625 C 632.519531 228.308594 632.84375 230.089844 633.214844 231.863281 C 633.585938 233.636719 634.003906 235.402344 634.460938 237.152344 C 634.921875 238.90625 635.425781 240.644531 635.976562 242.371094 C 636.523438 244.101562 637.117188 245.8125 637.753906 247.507812 C 638.386719 249.207031 639.066406 250.886719 639.789062 252.546875 C 640.507812 254.210938 641.269531 255.855469 642.074219 257.476562 C 642.878906 259.101562 643.726562 260.703125 644.609375 262.285156 C 645.496094 263.867188 646.421875 265.425781 647.386719 266.957031 C 648.351562 268.492188 649.355469 270 650.394531 271.484375 C 651.4375 272.964844 652.515625 274.421875 653.632812 275.851562 C 654.746094 277.277344 655.898438 278.679688 657.082031 280.046875 C 658.269531 281.417969 659.492188 282.757812 660.746094 284.0625 C 662 285.371094 663.285156 286.648438 664.605469 287.890625 C 665.925781 289.132812 667.273438 290.339844 668.65625 291.515625 C 674 295.988281 678.160156 301.371094 681.144531 307.667969 C 683.003906 311.652344 684.265625 315.8125 684.9375 320.15625 Z M 790.464844 375.210938 L 790.464844 376.570312 C 790.464844 377.289062 790.425781 378.007812 790.351562 378.722656 C 790.28125 379.4375 790.171875 380.148438 790.027344 380.855469 C 789.886719 381.5625 789.710938 382.257812 789.5 382.945312 C 789.289062 383.636719 789.046875 384.3125 788.769531 384.976562 C 788.492188 385.640625 788.183594 386.289062 787.84375 386.925781 C 787.503906 387.558594 787.132812 388.175781 786.730469 388.773438 C 786.332031 389.371094 785.902344 389.949219 785.445312 390.503906 C 784.988281 391.0625 784.507812 391.59375 783.996094 392.101562 C 783.488281 392.613281 782.957031 393.09375 782.398438 393.550781 C 781.84375 394.007812 781.265625 394.4375 780.667969 394.835938 C 780.070312 395.238281 779.453125 395.609375 778.820312 395.949219 C 778.183594 396.289062 777.535156 396.597656 776.871094 396.875 C 776.207031 397.152344 775.53125 397.394531 774.839844 397.605469 C 774.152344 397.816406 773.457031 397.992188 772.75 398.136719 C 772.046875 398.277344 771.335938 398.386719 770.617188 398.457031 C 769.902344 398.53125 769.183594 398.570312 768.464844 398.574219 L 707.566406 398.574219 C 706.847656 398.570312 706.128906 398.53125 705.410156 398.457031 C 704.695312 398.386719 703.984375 398.277344 703.28125 398.136719 C 702.574219 397.992188 701.875 397.816406 701.1875 397.605469 C 700.5 397.394531 699.824219 397.152344 699.160156 396.875 C 698.496094 396.597656 697.84375 396.289062 697.210938 395.949219 C 696.578125 395.609375 695.960938 395.238281 695.363281 394.839844 C 694.761719 394.4375 694.1875 394.007812 693.628906 393.550781 C 693.074219 393.09375 692.542969 392.613281 692.03125 392.101562 C 691.523438 391.59375 691.039062 391.0625 690.582031 390.503906 C 690.125 389.949219 689.699219 389.371094 689.296875 388.773438 C 688.898438 388.175781 688.527344 387.558594 688.1875 386.925781 C 687.84375 386.289062 687.539062 385.640625 687.261719 384.976562 C 686.984375 384.3125 686.738281 383.636719 686.527344 382.945312 C 686.320312 382.257812 686.140625 381.5625 686 380.855469 C 685.855469 380.148438 685.75 379.4375 685.675781 378.722656 C 685.601562 378.007812 685.566406 377.289062 685.5625 376.570312 L 685.5625 375.210938 Z M 812.480469 335.148438 C 813.300781 335.148438 814.117188 335.226562 814.925781 335.386719 C 815.730469 335.546875 816.515625 335.785156 817.277344 336.101562 C 818.035156 336.417969 818.757812 336.800781 819.441406 337.257812 C 820.128906 337.71875 820.761719 338.238281 821.34375 338.820312 C 821.925781 339.402344 822.445312 340.035156 822.902344 340.71875 C 823.359375 341.402344 823.746094 342.125 824.058594 342.886719 C 824.375 343.644531 824.613281 344.429688 824.773438 345.238281 C 824.933594 346.042969 825.015625 346.859375 825.015625 347.683594 C 825.015625 348.503906 824.933594 349.320312 824.773438 350.128906 C 824.613281 350.933594 824.375 351.71875 824.058594 352.480469 C 823.746094 353.238281 823.359375 353.960938 822.902344 354.644531 C 822.445312 355.332031 821.925781 355.964844 821.34375 356.546875 C 820.761719 357.128906 820.128906 357.648438 819.441406 358.105469 C 818.757812 358.5625 818.035156 358.949219 817.277344 359.261719 C 816.515625 359.578125 815.730469 359.816406 814.925781 359.976562 C 814.117188 360.136719 813.300781 360.214844 812.480469 360.214844 L 663.550781 360.214844 C 662.726562 360.214844 661.910156 360.136719 661.105469 359.976562 C 660.296875 359.816406 659.511719 359.578125 658.753906 359.261719 C 657.992188 358.949219 657.269531 358.5625 656.585938 358.105469 C 655.902344 357.648438 655.269531 357.128906 654.6875 356.546875 C 654.105469 355.964844 653.585938 355.332031 653.128906 354.644531 C 652.667969 353.960938 652.285156 353.238281 651.96875 352.480469 C 651.652344 351.71875 651.417969 350.933594 651.253906 350.128906 C 651.09375 349.320312 651.015625 348.503906 651.015625 347.683594 C 651.015625 346.859375 651.09375 346.042969 651.253906 345.238281 C 651.417969 344.429688 651.652344 343.644531 651.96875 342.886719 C 652.285156 342.125 652.667969 341.402344 653.128906 340.71875 C 653.585938 340.035156 654.105469 339.402344 654.6875 338.820312 C 655.269531 338.238281 655.902344 337.71875 656.585938 337.257812 C 657.269531 336.800781 657.992188 336.417969 658.753906 336.101562 C 659.511719 335.785156 660.296875 335.546875 661.105469 335.386719 C 661.910156 335.226562 662.726562 335.148438 663.550781 335.148438 Z M 709.085938 413.566406 L 766.945312 413.566406 C 766.535156 415.160156 765.992188 416.707031 765.324219 418.207031 C 764.65625 419.710938 763.871094 421.148438 762.964844 422.519531 C 762.058594 423.890625 761.050781 425.179688 759.929688 426.386719 C 758.8125 427.589844 757.605469 428.695312 756.304688 429.703125 C 755.003906 430.707031 753.632812 431.601562 752.183594 432.378906 C 750.734375 433.160156 749.234375 433.8125 747.679688 434.34375 C 746.125 434.875 744.535156 435.277344 742.914062 435.546875 C 741.292969 435.816406 739.660156 435.949219 738.015625 435.949219 C 736.371094 435.949219 734.738281 435.816406 733.117188 435.546875 C 731.496094 435.277344 729.90625 434.875 728.351562 434.34375 C 726.796875 433.8125 725.296875 433.160156 723.847656 432.378906 C 722.402344 431.601562 721.027344 430.707031 719.726562 429.703125 C 718.425781 428.695312 717.21875 427.589844 716.101562 426.386719 C 714.984375 425.179688 713.972656 423.890625 713.066406 422.519531 C 712.160156 421.148438 711.375 419.710938 710.707031 418.207031 C 710.039062 416.707031 709.5 415.160156 709.085938 413.566406 Z M 506.984375 658.277344 C 506.953125 658 506.9375 657.714844 506.941406 657.433594 L 498.328125 483.613281 C 498.296875 483.332031 498.28125 483.050781 498.285156 482.769531 L 497.699219 470.992188 L 448.621094 466.019531 L 436.058594 663.777344 L 507.507812 668.863281 Z M 521.597656 651.125 L 538.953125 654.148438 L 565.675781 500.84375 L 513.703125 491.777344 L 521.597656 651.113281 Z M 959.488281 497.425781 L 917.6875 501.511719 L 936.457031 656.058594 L 953.878906 654.355469 L 959.484375 497.421875 Z M 1039.8125 657.488281 L 1024.203125 471.675781 L 975.167969 477.152344 L 968.511719 663.414062 L 1039.8125 657.480469 Z M 810.125 756.132812 L 780.511719 733.878906 C 780.070312 738.269531 778.75 742.378906 776.554688 746.207031 L 766.703125 763.398438 L 790.035156 781.785156 L 790.472656 782.117188 C 792.167969 783.398438 794.042969 784.316406 796.097656 784.871094 C 798.148438 785.429688 800.230469 785.582031 802.339844 785.328125 C 804.386719 785.105469 806.316406 784.5 808.125 783.519531 C 809.933594 782.539062 811.488281 781.25 812.789062 779.65625 L 813.09375 779.261719 L 813.101562 779.261719 C 814.421875 777.605469 815.375 775.757812 815.960938 773.71875 C 816.550781 771.683594 816.722656 769.609375 816.488281 767.503906 C 816.234375 765.324219 815.585938 763.269531 814.535156 761.34375 C 813.488281 759.414062 812.117188 757.75 810.425781 756.355469 C 810.324219 756.277344 810.226562 756.191406 810.128906 756.109375 Z M 760.910156 719.140625 L 757.273438 716.40625 C 756.347656 715.902344 755.382812 715.492188 754.375 715.175781 C 753.371094 714.855469 752.34375 714.640625 751.296875 714.519531 C 750.246094 714.402344 749.199219 714.382812 748.148438 714.46875 C 747.097656 714.550781 746.0625 714.734375 745.046875 715.019531 C 744.03125 715.304688 743.050781 715.683594 742.109375 716.15625 C 741.167969 716.628906 740.277344 717.1875 739.445312 717.832031 C 738.609375 718.476562 737.84375 719.195312 737.148438 719.988281 C 736.453125 720.78125 735.839844 721.632812 735.308594 722.546875 L 735.292969 722.578125 L 735.273438 722.609375 L 716.277344 755.792969 C 716.1875 755.964844 716.089844 756.132812 715.988281 756.300781 C 715.484375 757.230469 715.070312 758.203125 714.753906 759.214844 C 714.441406 760.222656 714.222656 761.253906 714.109375 762.308594 C 713.996094 763.363281 713.984375 764.414062 714.074219 765.46875 C 714.164062 766.527344 714.355469 767.5625 714.652344 768.578125 C 714.945312 769.597656 715.332031 770.578125 715.816406 771.519531 C 716.300781 772.460938 716.871094 773.347656 717.53125 774.179688 C 718.1875 775.007812 718.917969 775.765625 719.722656 776.453125 C 720.53125 777.144531 721.394531 777.746094 722.316406 778.265625 C 723.242188 778.785156 724.203125 779.210938 725.210938 779.539062 C 726.21875 779.871094 727.246094 780.101562 728.296875 780.230469 C 729.347656 780.363281 730.402344 780.390625 731.457031 780.3125 C 732.515625 780.238281 733.554688 780.0625 734.574219 779.78125 C 735.597656 779.503906 736.582031 779.128906 737.53125 778.660156 C 738.480469 778.1875 739.375 777.632812 740.214844 776.984375 C 741.054688 776.339844 741.824219 775.621094 742.523438 774.824219 C 743.222656 774.03125 743.839844 773.175781 744.371094 772.257812 L 763.550781 738.761719 C 763.984375 737.988281 764.355469 737.183594 764.664062 736.351562 C 764.96875 735.519531 765.207031 734.667969 765.371094 733.796875 C 765.539062 732.925781 765.636719 732.046875 765.660156 731.160156 C 765.6875 730.273438 765.640625 729.390625 765.523438 728.511719 C 765.402344 727.632812 765.214844 726.765625 764.957031 725.917969 C 764.699219 725.070312 764.375 724.246094 763.980469 723.453125 C 763.589844 722.65625 763.136719 721.894531 762.621094 721.171875 C 762.105469 720.449219 761.539062 719.773438 760.914062 719.144531 Z M 770.953125 708.003906 L 819.097656 744.195312 C 819.296875 744.320312 819.488281 744.457031 819.671875 744.605469 L 827.613281 750.867188 C 827.792969 750.996094 827.96875 751.132812 828.140625 751.28125 C 828.972656 751.90625 829.859375 752.449219 830.796875 752.90625 C 831.730469 753.363281 832.703125 753.726562 833.710938 754 C 834.71875 754.269531 835.738281 754.445312 836.78125 754.519531 C 837.820312 754.597656 838.855469 754.574219 839.890625 754.449219 C 840.929688 754.328125 841.941406 754.109375 842.9375 753.792969 C 843.929688 753.476562 844.882812 753.070312 845.800781 752.570312 C 846.714844 752.070312 847.574219 751.492188 848.378906 750.828125 C 849.183594 750.164062 849.917969 749.433594 850.582031 748.628906 C 850.699219 748.464844 850.820312 748.3125 850.953125 748.160156 C 851.988281 746.800781 852.722656 745.296875 853.15625 743.644531 C 853.589844 741.996094 853.6875 740.324219 853.453125 738.632812 C 853.023438 736.132812 852.289062 733.71875 851.253906 731.402344 C 850.214844 729.085938 848.90625 726.929688 847.328125 724.941406 L 775.011719 670.582031 C 774.621094 670.285156 774.261719 669.957031 773.933594 669.59375 C 773.605469 669.226562 773.320312 668.832031 773.070312 668.410156 C 772.820312 667.988281 772.613281 667.546875 772.453125 667.085938 C 772.289062 666.625 772.171875 666.148438 772.105469 665.664062 C 772.035156 665.179688 772.015625 664.691406 772.042969 664.203125 C 772.066406 663.714844 772.140625 663.230469 772.265625 662.757812 C 772.386719 662.28125 772.550781 661.824219 772.765625 661.382812 C 772.976562 660.941406 773.230469 660.523438 773.523438 660.132812 C 773.816406 659.738281 774.148438 659.378906 774.511719 659.050781 C 774.875 658.726562 775.269531 658.4375 775.691406 658.1875 C 776.113281 657.9375 776.554688 657.730469 777.015625 657.566406 C 777.480469 657.40625 777.953125 657.289062 778.4375 657.21875 C 778.921875 657.148438 779.410156 657.128906 779.898438 657.15625 C 780.390625 657.179688 780.871094 657.253906 781.347656 657.375 C 781.820312 657.496094 782.28125 657.664062 782.722656 657.875 C 783.164062 658.085938 783.582031 658.339844 783.972656 658.632812 L 856.753906 713.335938 C 856.949219 713.460938 857.140625 713.597656 857.328125 713.746094 L 864.738281 719.585938 C 865.15625 719.914062 865.589844 720.21875 866.039062 720.503906 C 866.488281 720.789062 866.953125 721.050781 867.425781 721.292969 C 867.902344 721.53125 868.386719 721.75 868.886719 721.941406 C 869.382812 722.132812 869.886719 722.300781 870.398438 722.445312 C 870.910156 722.589844 871.429688 722.707031 871.953125 722.800781 C 872.480469 722.894531 873.007812 722.960938 873.535156 723.003906 C 874.066406 723.042969 874.597656 723.058594 875.132812 723.046875 C 875.664062 723.039062 876.195312 723 876.722656 722.9375 C 877.253906 722.878906 877.777344 722.789062 878.296875 722.675781 C 878.816406 722.5625 879.332031 722.421875 879.835938 722.261719 C 880.34375 722.097656 880.84375 721.910156 881.332031 721.695312 C 881.820312 721.484375 882.296875 721.25 882.761719 720.988281 C 883.226562 720.730469 883.679688 720.449219 884.117188 720.148438 C 884.554688 719.84375 884.976562 719.519531 885.382812 719.175781 C 885.789062 718.832031 886.179688 718.46875 886.550781 718.089844 C 886.921875 717.707031 887.273438 717.308594 887.605469 716.890625 C 888.730469 715.476562 889.535156 713.898438 890.015625 712.15625 C 890.496094 710.410156 890.613281 708.640625 890.367188 706.851562 C 889.964844 704.394531 889.242188 702.039062 888.210938 699.773438 C 887.175781 697.511719 885.859375 695.425781 884.269531 693.515625 L 811.847656 639.078125 C 811.457031 638.78125 811.097656 638.453125 810.769531 638.089844 C 810.441406 637.722656 810.148438 637.328125 809.898438 636.90625 C 809.648438 636.484375 809.441406 636.042969 809.277344 635.578125 C 809.117188 635.117188 809 634.644531 808.929688 634.15625 C 808.859375 633.671875 808.835938 633.183594 808.863281 632.691406 C 808.890625 632.203125 808.964844 631.71875 809.085938 631.246094 C 809.207031 630.769531 809.375 630.308594 809.585938 629.867188 C 809.796875 629.425781 810.050781 629.007812 810.347656 628.613281 C 810.640625 628.222656 810.96875 627.859375 811.335938 627.535156 C 811.703125 627.207031 812.09375 626.917969 812.519531 626.667969 C 812.941406 626.417969 813.382812 626.210938 813.847656 626.046875 C 814.308594 625.886719 814.785156 625.769531 815.269531 625.699219 C 815.753906 625.628906 816.242188 625.609375 816.734375 625.636719 C 817.222656 625.664062 817.707031 625.738281 818.183594 625.859375 C 818.65625 625.980469 819.117188 626.148438 819.558594 626.363281 C 820 626.574219 820.417969 626.828125 820.808594 627.125 L 893.59375 681.832031 C 893.785156 681.957031 893.976562 682.097656 894.164062 682.242188 L 898.226562 685.441406 C 898.648438 685.769531 899.082031 686.078125 899.53125 686.363281 C 899.980469 686.648438 900.441406 686.910156 900.917969 687.148438 C 901.394531 687.390625 901.878906 687.605469 902.375 687.800781 C 902.871094 687.992188 903.375 688.160156 903.886719 688.304688 C 904.402344 688.449219 904.917969 688.566406 905.445312 688.660156 C 905.96875 688.753906 906.496094 688.820312 907.027344 688.859375 C 907.558594 688.902344 908.089844 688.917969 908.621094 688.90625 C 909.152344 688.898438 909.683594 688.859375 910.210938 688.796875 C 910.742188 688.738281 911.265625 688.648438 911.785156 688.535156 C 912.304688 688.421875 912.820312 688.28125 913.324219 688.121094 C 913.832031 687.957031 914.328125 687.769531 914.816406 687.554688 C 915.304688 687.34375 915.78125 687.109375 916.25 686.851562 C 916.714844 686.589844 917.164062 686.3125 917.601562 686.007812 C 918.042969 685.707031 918.464844 685.382812 918.871094 685.039062 C 919.277344 684.695312 919.664062 684.332031 920.035156 683.949219 C 920.40625 683.566406 920.757812 683.167969 921.089844 682.75 L 921.089844 682.742188 C 921.417969 682.324219 921.722656 681.886719 922.011719 681.4375 C 922.296875 680.988281 922.558594 680.527344 922.796875 680.050781 C 923.039062 679.574219 923.253906 679.089844 923.449219 678.59375 C 923.640625 678.097656 923.808594 677.59375 923.953125 677.078125 C 924.097656 676.566406 924.214844 676.046875 924.308594 675.523438 C 924.398438 675 924.46875 674.472656 924.507812 673.941406 C 924.550781 673.410156 924.566406 672.878906 924.554688 672.347656 C 924.542969 671.8125 924.507812 671.285156 924.445312 670.753906 C 924.382812 670.226562 924.296875 669.699219 924.183594 669.179688 C 924.070312 668.660156 923.929688 668.148438 923.765625 667.640625 C 923.601562 667.132812 923.414062 666.636719 923.203125 666.148438 C 922.992188 665.660156 922.753906 665.183594 922.496094 664.71875 C 922.238281 664.25 921.957031 663.800781 921.652344 663.363281 C 921.351562 662.921875 921.027344 662.5 920.683594 662.09375 C 920.339844 661.6875 919.976562 661.300781 919.59375 660.929688 C 919.210938 660.558594 918.8125 660.207031 918.394531 659.875 L 844.578125 601.703125 L 844.511719 601.648438 C 820.484375 583.996094 810.46875 571.523438 802.390625 561.453125 C 790.398438 546.519531 783.144531 537.488281 729.761719 522.535156 L 656.40625 565.003906 C 653.855469 566.5 651.136719 567.566406 648.246094 568.210938 C 645.359375 568.851562 642.445312 569.035156 639.5 568.761719 C 636.554688 568.476562 633.726562 567.742188 631.011719 566.558594 C 628.300781 565.375 625.839844 563.800781 623.628906 561.835938 L 618.398438 557.230469 C 617.421875 556.390625 616.554688 555.453125 615.789062 554.417969 C 615.023438 553.386719 614.378906 552.28125 613.859375 551.101562 C 613.339844 549.925781 612.953125 548.707031 612.707031 547.445312 C 612.457031 546.183594 612.347656 544.910156 612.378906 543.625 C 612.410156 540.933594 613.0625 538.40625 614.339844 536.039062 C 615.351562 534.207031 616.566406 532.515625 617.988281 530.976562 L 643.042969 502.605469 L 643.195312 502.425781 L 648.210938 496.550781 L 594.503906 504.265625 C 593.890625 504.347656 593.273438 504.359375 592.660156 504.292969 L 580.496094 502.957031 L 553.367188 658.582031 L 582.113281 672.683594 L 589.972656 657.960938 C 590.34375 657.265625 590.273438 657.367188 590.382812 657.175781 C 591.382812 655.445312 592.539062 653.832031 593.859375 652.332031 C 595.179688 650.835938 596.632812 649.480469 598.222656 648.273438 C 599.808594 647.0625 601.5 646.019531 603.296875 645.148438 C 605.089844 644.273438 606.957031 643.585938 608.886719 643.082031 C 610.800781 642.574219 612.75 642.246094 614.726562 642.101562 C 616.703125 641.957031 618.675781 642 620.644531 642.226562 C 622.613281 642.453125 624.546875 642.859375 626.4375 643.449219 C 628.332031 644.039062 630.152344 644.800781 631.902344 645.730469 C 632.644531 646.128906 632.558594 646.0625 632.726562 646.160156 C 634.488281 647.164062 636.136719 648.332031 637.667969 649.664062 C 639.203125 650.996094 640.589844 652.464844 641.832031 654.070312 C 643.070312 655.675781 644.144531 657.386719 645.046875 659.207031 C 645.949219 661.023438 646.664062 662.914062 647.191406 664.871094 C 648.332031 664.277344 649.507812 663.753906 650.714844 663.304688 C 651.921875 662.851562 653.152344 662.476562 654.40625 662.179688 C 655.660156 661.878906 656.929688 661.660156 658.207031 661.515625 C 659.488281 661.371094 660.773438 661.308594 662.0625 661.324219 C 663.351562 661.339844 664.632812 661.433594 665.910156 661.609375 C 667.1875 661.78125 668.449219 662.035156 669.695312 662.363281 C 670.941406 662.691406 672.164062 663.097656 673.359375 663.574219 C 674.554688 664.054688 675.71875 664.605469 676.847656 665.230469 C 677.085938 665.347656 677.316406 665.480469 677.542969 665.625 C 680.5625 667.367188 683.234375 669.542969 685.550781 672.148438 C 687.871094 674.75 689.722656 677.65625 691.105469 680.859375 C 692.289062 680.089844 693.523438 679.402344 694.800781 678.796875 C 696.082031 678.195312 697.394531 677.679688 698.742188 677.253906 C 700.089844 676.828125 701.460938 676.496094 702.855469 676.257812 C 704.246094 676.015625 705.652344 675.871094 707.0625 675.820312 C 708.476562 675.769531 709.886719 675.8125 711.292969 675.953125 C 712.699219 676.09375 714.089844 676.328125 715.464844 676.65625 C 716.839844 676.984375 718.1875 677.402344 719.507812 677.914062 C 720.824219 678.425781 722.105469 679.019531 723.339844 679.703125 C 723.582031 679.824219 723.8125 679.957031 724.039062 680.101562 C 725.777344 681.128906 727.402344 682.3125 728.914062 683.652344 C 730.421875 684.992188 731.789062 686.46875 733.011719 688.074219 C 734.238281 689.679688 735.292969 691.390625 736.1875 693.203125 C 737.078125 695.015625 737.785156 696.894531 738.3125 698.84375 C 738.527344 699.640625 738.714844 700.449219 738.867188 701.257812 C 739.648438 700.980469 740.4375 700.730469 741.234375 700.511719 C 742.523438 700.160156 743.832031 699.890625 745.15625 699.707031 C 746.480469 699.519531 747.808594 699.421875 749.148438 699.40625 C 750.484375 699.394531 751.816406 699.464844 753.144531 699.625 C 754.472656 699.78125 755.785156 700.023438 757.082031 700.351562 C 758.375 700.675781 759.648438 701.085938 760.890625 701.574219 C 762.136719 702.0625 763.34375 702.632812 764.515625 703.277344 C 765.683594 703.921875 766.808594 704.636719 767.886719 705.429688 C 768.96875 706.21875 769.992188 707.074219 770.960938 707.996094 Z M 620.929688 700.792969 L 630.417969 684.21875 C 630.527344 683.289062 630.804688 682.410156 631.242188 681.582031 C 632.292969 679.625 632.945312 677.542969 633.199219 675.339844 C 633.457031 673.132812 633.292969 670.957031 632.71875 668.8125 C 632.175781 666.773438 631.261719 664.917969 629.972656 663.242188 C 628.6875 661.566406 627.128906 660.207031 625.300781 659.15625 C 624.71875 658.824219 625.210938 659.074219 624.882812 658.898438 C 623.023438 657.914062 621.046875 657.304688 618.953125 657.070312 C 616.859375 656.835938 614.796875 656.992188 612.765625 657.539062 L 612.734375 657.539062 C 610.769531 658.046875 608.976562 658.910156 607.359375 660.136719 C 605.738281 661.363281 604.421875 662.855469 603.402344 664.609375 C 603.070312 665.1875 603.328125 664.683594 603.167969 664.988281 L 593.34375 683.386719 C 592.292969 685.339844 591.640625 687.421875 591.386719 689.628906 C 591.132812 691.832031 591.292969 694.007812 591.871094 696.152344 C 592.414062 698.191406 593.324219 700.050781 594.613281 701.722656 C 595.898438 703.398438 597.457031 704.761719 599.289062 705.808594 C 599.875 706.140625 599.402344 705.90625 599.703125 706.066406 C 601.5625 707.050781 603.539062 707.660156 605.632812 707.894531 C 607.726562 708.128906 609.789062 707.972656 611.824219 707.425781 C 613.707031 706.941406 615.4375 706.125 617.011719 704.980469 C 618.585938 703.832031 619.890625 702.4375 620.925781 700.789062 Z M 634.300781 707.589844 C 634.253906 707.6875 634.242188 707.710938 634.195312 707.796875 C 634.070312 708.007812 633.949219 708.21875 633.820312 708.425781 L 633.59375 708.828125 C 633.070312 709.746094 632.644531 710.707031 632.3125 711.710938 C 631.976562 712.710938 631.742188 713.734375 631.605469 714.78125 C 631.46875 715.828125 631.433594 716.878906 631.503906 717.933594 C 631.570312 718.988281 631.738281 720.023438 632.003906 721.046875 C 632.273438 722.066406 632.636719 723.054688 633.097656 724.003906 C 633.554688 724.953125 634.101562 725.851562 634.734375 726.699219 C 635.367188 727.542969 636.074219 728.320312 636.859375 729.027344 C 637.640625 729.738281 638.484375 730.363281 639.390625 730.90625 C 639.554688 730.992188 639.707031 731.082031 639.859375 731.179688 C 641.746094 732.148438 643.746094 732.710938 645.863281 732.863281 C 647.980469 733.011719 650.039062 732.738281 652.046875 732.042969 C 654.253906 731.347656 656.261719 730.277344 658.074219 728.832031 C 659.882812 727.390625 661.375 725.671875 662.546875 723.671875 L 676.492188 699.316406 C 677.496094 697.625 678.117188 695.804688 678.355469 693.851562 C 678.59375 691.898438 678.429688 689.980469 677.859375 688.097656 C 677.171875 686.03125 676.128906 684.164062 674.730469 682.496094 C 673.332031 680.832031 671.675781 679.476562 669.765625 678.441406 C 669.300781 678.179688 668.824219 677.941406 668.339844 677.722656 C 667.851562 677.507812 667.355469 677.316406 666.851562 677.148438 C 666.347656 676.980469 665.832031 676.839844 665.316406 676.722656 C 664.796875 676.605469 664.273438 676.511719 663.742188 676.445312 C 663.214844 676.378906 662.683594 676.339844 662.152344 676.324219 C 661.621094 676.308594 661.089844 676.320312 660.558594 676.355469 C 660.027344 676.394531 659.5 676.457031 658.972656 676.546875 C 658.449219 676.636719 657.929688 676.75 657.417969 676.890625 C 656.902344 677.027344 656.398438 677.191406 655.898438 677.382812 C 655.402344 677.570312 654.914062 677.78125 654.4375 678.019531 C 653.960938 678.253906 653.496094 678.515625 653.042969 678.796875 C 652.59375 679.078125 652.15625 679.378906 651.734375 679.703125 C 651.3125 680.03125 650.90625 680.375 650.515625 680.738281 C 650.128906 681.101562 649.757812 681.484375 649.40625 681.882812 C 649.054688 682.285156 648.726562 682.699219 648.414062 683.132812 C 648.105469 683.5625 647.816406 684.011719 647.546875 684.472656 L 634.308594 707.59375 Z M 703.28125 748.339844 L 722.289062 715.140625 L 722.3125 715.097656 C 722.835938 714.167969 723.261719 713.195312 723.59375 712.183594 C 723.925781 711.171875 724.160156 710.136719 724.289062 709.082031 C 724.417969 708.023438 724.445312 706.964844 724.371094 705.902344 C 724.292969 704.839844 724.113281 703.792969 723.835938 702.765625 C 723.554688 701.738281 723.175781 700.75 722.703125 699.792969 C 722.226562 698.839844 721.667969 697.941406 721.015625 697.097656 C 720.367188 696.253906 719.640625 695.480469 718.839844 694.777344 C 718.039062 694.074219 717.179688 693.457031 716.257812 692.921875 C 715.796875 692.660156 715.320312 692.421875 714.832031 692.203125 C 714.347656 691.988281 713.851562 691.796875 713.34375 691.628906 C 712.839844 691.460938 712.328125 691.320312 711.808594 691.203125 C 711.289062 691.085938 710.765625 690.992188 710.238281 690.925781 C 709.710938 690.859375 709.179688 690.820312 708.648438 690.804688 C 708.113281 690.789062 707.582031 690.800781 707.050781 690.839844 C 706.523438 690.875 705.992188 690.941406 705.46875 691.027344 C 704.945312 691.117188 704.425781 691.230469 703.910156 691.371094 C 703.398438 691.511719 702.890625 691.675781 702.394531 691.863281 C 701.894531 692.050781 701.410156 692.265625 700.933594 692.5 C 700.453125 692.738281 699.992188 692.996094 699.539062 693.277344 C 699.085938 693.558594 698.648438 693.863281 698.226562 694.1875 C 697.804688 694.511719 697.402344 694.855469 697.011719 695.21875 C 696.625 695.582031 696.253906 695.964844 695.902344 696.363281 C 695.550781 696.765625 695.21875 697.179688 694.910156 697.613281 C 694.597656 698.042969 694.308594 698.492188 694.042969 698.949219 L 674.851562 732.457031 C 674.332031 733.378906 673.90625 734.339844 673.570312 735.339844 C 673.234375 736.34375 673 737.367188 672.863281 738.414062 C 672.726562 739.460938 672.695312 740.511719 672.761719 741.566406 C 672.828125 742.621094 672.996094 743.660156 673.265625 744.679688 C 673.53125 745.703125 673.894531 746.691406 674.355469 747.640625 C 674.8125 748.59375 675.359375 749.492188 675.992188 750.335938 C 676.625 751.183594 677.335938 751.960938 678.117188 752.667969 C 678.902344 753.375 679.746094 754.003906 680.648438 754.546875 C 680.816406 754.632812 680.980469 754.722656 681.132812 754.824219 C 682.050781 755.320312 683.007812 755.730469 684.003906 756.046875 C 684.996094 756.359375 686.015625 756.578125 687.050781 756.699219 C 688.089844 756.820312 689.128906 756.84375 690.167969 756.765625 C 691.210938 756.6875 692.234375 756.511719 693.242188 756.238281 C 694.25 755.964844 695.222656 755.597656 696.160156 755.136719 C 697.097656 754.675781 697.984375 754.132812 698.816406 753.503906 C 699.652344 752.875 700.417969 752.171875 701.117188 751.394531 C 701.8125 750.617188 702.433594 749.785156 702.972656 748.890625 C 703.066406 748.707031 703.167969 748.53125 703.28125 748.355469 Z M 672.679688 490.949219 C 672.554688 491.117188 672.425781 491.257812 672.292969 491.40625 L 654.570312 512.144531 C 654.464844 512.265625 654.359375 512.378906 654.253906 512.492188 L 629.1875 540.871094 C 628.574219 541.527344 628.042969 542.242188 627.589844 543.015625 C 627.441406 543.257812 627.355469 543.523438 627.328125 543.804688 C 627.316406 544.238281 627.394531 544.652344 627.566406 545.050781 C 627.746094 545.417969 627.992188 545.734375 628.308594 545.992188 L 633.539062 550.601562 C 634.566406 551.523438 635.707031 552.265625 636.96875 552.828125 C 638.230469 553.390625 639.546875 553.742188 640.917969 553.886719 C 642.316406 554.007812 643.695312 553.914062 645.0625 553.601562 C 646.429688 553.289062 647.71875 552.777344 648.921875 552.058594 L 724.980469 508.027344 C 725.914062 507.484375 726.917969 507.160156 727.992188 507.054688 C 729.066406 506.949219 730.117188 507.070312 731.136719 507.417969 C 791.585938 524.105469 800 534.582031 814.054688 552.089844 C 821.582031 561.472656 830.917969 573.097656 853.371094 589.59375 C 853.53125 589.703125 853.6875 589.816406 853.839844 589.933594 L 857.335938 592.6875 L 919.578125 641.339844 L 902.734375 502.667969 L 869.875 504.398438 C 868.976562 504.449219 868.097656 504.339844 867.238281 504.070312 L 867.238281 504.082031 L 766.519531 472.117188 L 675.921875 487.171875 Z M 672.679688 490.949219 " fill-opacity="1" fill-rule="evenodd"/></g></svg>